<svg width="39" height="39" viewBox="0 0 39 39" xmlns="http://www.w3.org/2000/svg"><g id="i-3" fill="#63B1FF" fill-rule="evenodd"><path d="M19.41 38.837c-10.68 0-19.37-8.69-19.37-19.37C.04 8.787 8.73.097 19.41.097c10.68 0 19.37 8.69 19.37 19.37 0 10.68-8.69 19.37-19.37 19.37zm0-36.585c-9.492 0-17.215 7.723-17.215 17.215 0 9.493 7.723 17.216 17.215 17.216 9.493 0 17.216-7.723 17.216-17.216 0-9.492-7.723-17.215-17.216-17.215z" id="Fill-1"/><path d="M19.408 4.118c-8.464 0-15.35 6.886-15.35 15.35 0 8.463 6.886 15.35 15.35 15.35 8.464 0 15.35-6.887 15.35-15.35 0-8.464-6.886-15.35-15.35-15.35zm0 28.554c-7.28 0-13.204-5.923-13.204-13.204 0-7.28 5.924-13.205 13.204-13.205s13.204 5.924 13.204 13.205c0 7.28-5.924 13.204-13.204 13.204z" id="Fill-2"/><path d="M19.273 27.686c-.46-.033-.842-.36-.95-.81l-2.238-9.4-1.98 6.34c-.118.375-.43.653-.815.725-.068.014-.132.02-.195.02-.325 0-.626-.145-.828-.397L10.5 21.956l-.414.415c-.2.2-.466.312-.75.312h-3.53c-.583 0-1.058-.475-1.058-1.06 0-.583.475-1.058 1.058-1.058H8.9l.94-.942c.198-.197.473-.31.756-.31.343.017.628.158.82.398l1.26 1.575 2.537-8.116c.136-.438.555-.743 1.018-.743.506.016.912.343 1.024.814l2.356 9.898 1.264-3.16c.155-.387.524-.648.94-.665.437 0 .81.224.99.585l.23.462 2.858-6.666c.165-.387.545-.64.966-.642.423 0 .805.247.975.63l2.224 5.004h2.86c.586 0 1.06.475 1.06 1.06 0 .583-.474 1.058-1.06 1.058H29.37c-.42 0-.8-.247-.968-.63l-1.52-3.417-2.8 6.535c-.162.378-.532.63-.942.64-.426 0-.797-.223-.978-.583l-.197-.396-1.63 4.07c-.16.405-.546.665-.982.665l-.08-.004" id="Fill-3"/></g></svg>