<svg width="34" height="39" viewBox="0 0 34 39" xmlns="http://www.w3.org/2000/svg"><g id="i-2" transform="translate(1 1)" fill="#63B1FF" fill-rule="evenodd"><path d="M23.484 9.94H8.45c-.532 0-.963.437-.963.977v8.144c0 .54.43.98.962.98h15.034c.532 0 .963-.44.963-.98v-8.143c0-.54-.43-.978-.963-.978zM9.412 11.894h13.11v6.188H9.412v-6.188z" id="Fill-1"/><path d="M14.272 17.267c.21 0 .422-.083.583-.246l2.833-2.876c.322-.328.322-.86 0-1.185-.322-.33-.844-.33-1.167-.003l-2.83 2.878c-.323.327-.323.858 0 1.185.16.164.37.247.582.247" id="Fill-2"/><path d="M17.494 17.02c.16.164.372.247.583.247.21 0 .422-.083.583-.247l1.683-1.71c.322-.327.322-.858 0-1.185-.322-.328-.844-.328-1.167 0l-1.682 1.71c-.322.327-.322.858 0 1.185" id="Fill-3"/><path d="M31.716 9.925c-.163-.127-.363-.205-.584-.205h-2.06c-.323-1.728-.87-2.862-1.014-3.142-.674-1.683-2.105-3.46-2.15-3.516-2.477-3.22-5.729-3.13-5.83-3.128h-8.185c-.142-.007-3.39-.094-5.852 3.11-.06.075-1.492 1.85-2.165 3.535-.144.278-.688 1.406-1.012 3.14H.796c-.22 0-.42.078-.583.205-.267.174-.445.476-.445.822v4.45c0 .283.12.534.307.713.175.188.42.306.696.306h2.023l.42 9.096.004.06c.01.1.286 2.5 2.447 6.312.125.22 3.133 5.408 8.858 5.408h2.888c5.726 0 8.733-5.188 8.858-5.408 2.16-3.812 2.436-6.212 2.447-6.313l.423-9.154h2.02c.274 0 .52-.118.696-.306.188-.18.307-.43.307-.712v-4.45c0-.347-.177-.65-.444-.823zM1.693 14.26v-2.584h.944c-.012.238-.02.48-.02.732l.085 1.853h-1.01zM26.8 25.18c-.036.24-.375 2.307-2.2 5.525-.024.044-2.593 4.432-7.19 4.432h-2.888c-4.597 0-7.165-4.388-7.19-4.43-1.832-3.232-2.166-5.303-2.198-5.526L4.54 12.363c0-2.93 1.04-4.873 1.047-4.89l.056-.118c.55-1.41 1.87-3.052 1.9-3.087 1.852-2.41 4.183-2.38 4.313-2.377h8.257c.017-.003 2.402-.06 4.292 2.396.013.016 1.333 1.657 1.884 3.068l.055.12c.01.018 1.047 1.925 1.048 4.842L26.8 25.18zm3.436-10.92H29.23l.087-1.898c0-.235-.007-.462-.018-.686h.936v2.585z" id="Fill-4"/></g></svg>