<svg width="39" height="39" viewBox="0 0 39 39" xmlns="http://www.w3.org/2000/svg"><g id="i-4" fill="#63B1FF" fill-rule="evenodd"><path d="M19.408 29.793c-5.693 0-10.326-4.632-10.326-10.326 0-5.693 4.633-10.325 10.326-10.325 5.693 0 10.325 4.632 10.325 10.325 0 5.694-4.632 10.326-10.325 10.326zm0-18.497c-4.506 0-8.172 3.666-8.172 8.17 0 4.507 3.666 8.173 8.172 8.173 4.505 0 8.17-3.667 8.17-8.173 0-4.505-3.665-8.17-8.17-8.17z" id="Fill-1"/><path d="M19.408 25.898c-3.545 0-6.43-2.885-6.43-6.43 0-3.546 2.885-6.43 6.43-6.43 3.546 0 6.43 2.884 6.43 6.43 0 3.545-2.884 6.43-6.43 6.43zm0-10.707c-2.36 0-4.277 1.92-4.277 4.277 0 2.36 1.92 4.277 4.278 4.277 2.358 0 4.277-1.918 4.277-4.277 0-2.358-1.92-4.276-4.277-4.276z" id="Fill-2"/><path d="M19.41 38.837c-10.68 0-19.37-8.69-19.37-19.37C.04 8.787 8.73.097 19.41.097c10.68 0 19.37 8.69 19.37 19.37 0 10.68-8.69 19.37-19.37 19.37zm0-36.585c-9.492 0-17.215 7.723-17.215 17.215 0 9.493 7.723 17.216 17.215 17.216 9.493 0 17.216-7.723 17.216-17.216 0-9.492-7.723-17.215-17.216-17.215z" id="Fill-3"/></g></svg>