<svg width="225" height="79" viewBox="0 0 225 79" xmlns="http://www.w3.org/2000/svg" preserveAspectRatio="xMinYMid meet"><g id="logo" transform="translate(-870 -767) translate(870 767)" fill="none" fill-rule="evenodd"><path d="M11.65 40.865l-.713-2.094h-5.69l-.713 2.095H.314l5.43-14.548h4.674l5.452 14.548h-4.22zm-3.568-10.84l-1.84 5.474h3.68l-1.84-5.476z" id="Fill-1" fill="#fff"/><path d="M19.83 39.622v5.255h-3.332V30.33h3.33v1.222c.824-1.004 1.905-1.484 3.096-1.484 2.617 0 4.586 1.963 4.586 5.518 0 3.578-1.97 5.54-4.586 5.54-1.17 0-2.23-.458-3.095-1.504zm4.283-4.036c0-1.57-.995-2.55-2.293-2.55-.714 0-1.58.39-1.99.96V37.2c.41.546 1.276.96 1.99.96 1.298 0 2.293-.982 2.293-2.574z" id="Fill-2" fill="#fff"/><path d="M37.17 33.252h-4.955v7.613h-3.332V30.33h8.287v2.922" id="Fill-3" fill="#fff"/><path d="M39.08 41.977c.24.13.564.196.823.196.758 0 1.234-.152 1.407-.588l.238-.568-4.154-10.687H40.9l2.357 6.674 2.38-6.674h3.526l-4.716 12.04c-.844 2.224-2.423 2.726-4.414 2.77-.303 0-1.082-.065-1.428-.175l.476-2.988" id="Fill-4" fill="#fff"/><path d="M48.678 35.586c0-3.293 2.445-5.518 5.71-5.518 2.252 0 3.658 1.004 4.286 1.94l-2.163 2.03c-.41-.61-1.082-1.003-1.97-1.003-1.384 0-2.443.96-2.443 2.55 0 1.593 1.06 2.575 2.444 2.575.888 0 1.56-.436 1.97-1.025l2.164 2.05c-.628.916-2.034 1.942-4.285 1.942-3.267 0-5.712-2.225-5.712-5.54" id="Fill-5" fill="#fff"/><path d="M10.02 59.902V48.626H4.025v11.276H.304V45.355H13.74v14.547h-3.72" id="Fill-6" fill="#fff"/><path d="M21.953 59.902v-1.047c-.65.786-1.904 1.31-3.245 1.31-1.602 0-3.592-1.09-3.592-3.47 0-2.55 1.99-3.38 3.592-3.38 1.384 0 2.617.437 3.245 1.22v-1.263c0-.916-.78-1.527-2.12-1.527-1.04 0-2.12.393-2.965 1.112l-1.19-2.116c1.342-1.154 3.137-1.634 4.74-1.634 2.51 0 4.867.937 4.867 4.21v6.586h-3.332zm0-2.705v-.937c-.346-.48-1.125-.742-1.86-.742-.888 0-1.667.393-1.667 1.22 0 .83.78 1.223 1.666 1.223.736 0 1.515-.26 1.86-.763z" id="Fill-7" fill="#fff"/><path d="M27.2 59.902V49.367h3.33v5.52l3.722-5.52h3.354v10.535h-3.332V54.1l-3.895 5.802H27.2zm5.213-11.516c-1.536 0-2.92-.74-3.808-1.92l1.428-1.177c.54.74 1.342 1.264 2.38 1.264.995 0 1.817-.458 2.358-1.265l1.43 1.177c-.866 1.178-2.23 1.92-3.787 1.92z" id="Fill-8" fill="#fff"/><path d="M46.618 59.902V52.29h-3.743v7.612h-3.33V49.367H49.95v10.535h-3.332" id="Fill-9" fill="#fff"/><path d="M51.125 57.416c.78 0 1.297-.698 1.6-2.988l.693-5.06h8.935V59.9h-3.33V52.29h-2.728l-.324 2.574c-.432 3.446-1.773 5.3-4.845 5.3v-2.748" id="Fill-10" fill="#fff"/><path d="M70.488 59.902v-1.047c-.65.786-1.904 1.31-3.246 1.31-1.6 0-3.592-1.09-3.592-3.47 0-2.55 1.99-3.38 3.592-3.38 1.385 0 2.618.437 3.246 1.22v-1.263c0-.916-.78-1.527-2.12-1.527-1.04 0-2.12.393-2.965 1.112l-1.19-2.116c1.342-1.154 3.137-1.634 4.738-1.634 2.512 0 4.87.937 4.87 4.21v6.586h-3.332zm0-2.705v-.937c-.347-.48-1.126-.742-1.86-.742-.888 0-1.667.393-1.667 1.22 0 .83.78 1.223 1.667 1.223.735 0 1.514-.26 1.86-.763z" id="Fill-11" fill="#fff"/><path d="M75.734 59.902V49.367h3.332v5.52l3.72-5.52h3.354v10.535h-3.33V54.1l-3.897 5.802h-3.18zm5.214-11.516c-1.536 0-2.922-.74-3.808-1.92l1.428-1.177c.54.74 1.34 1.264 2.38 1.264.994 0 1.817-.458 2.358-1.265l1.428 1.177c-.866 1.178-2.23 1.92-3.786 1.92z" id="Fill-12" fill="#fff"/><path d="M88.085 59.902V49.367h3.33v3.62h3.744v-3.62h3.33v10.535h-3.33v-3.99h-3.744v3.99h-3.33" id="Fill-13" fill="#fff"/><path d="M105.373 52.64c0-4.494 3.376-7.525 7.81-7.525 3.484 0 5.344 1.984 6.297 3.904l-3.203 1.525c-.475-1.156-1.708-2.115-3.093-2.115-2.358 0-4.024 1.832-4.024 4.21 0 2.377 1.666 4.208 4.024 4.208 1.385 0 2.618-.96 3.093-2.115l3.203 1.527c-.93 1.875-2.813 3.904-6.296 3.904-4.435 0-7.81-3.053-7.81-7.525" id="Fill-14" fill="#fff"/><path d="M119.955 54.624c0-3.053 2.294-5.518 5.56-5.518 3.095 0 5.345 2.29 5.345 5.866v.72h-7.443c.195.983 1.104 1.876 2.618 1.876.736 0 2.012-.326 2.597-.893l1.405 2.093c-1.038.938-2.77 1.396-4.37 1.396-3.223 0-5.712-2.116-5.712-5.54zm5.56-2.923c-1.45 0-2.01 1.048-2.14 1.812h4.304c-.087-.742-.628-1.81-2.165-1.81z" id="Fill-15" fill="#fff"/><path d="M135.398 58.66v5.255h-3.332V49.367h3.332v1.222c.823-1.004 1.904-1.484 3.094-1.484 2.618 0 4.587 1.962 4.587 5.518 0 3.577-1.97 5.54-4.588 5.54-1.168 0-2.23-.458-3.094-1.505zm4.284-4.036c0-1.57-.995-2.552-2.294-2.552-.713 0-1.58.392-1.99.96v3.206c.41.545 1.277.96 1.99.96 1.3 0 2.294-.982 2.294-2.574z" id="Fill-16" fill="#fff"/><path d="M144.452 59.902V49.367h7.097c2.227 0 3.288 1.374 3.288 2.705 0 1.244-.78 2.094-1.796 2.4 1.19.24 2.033 1.265 2.033 2.55 0 1.55-1.103 2.88-3.332 2.88h-7.29zm7.032-7.285c0-.392-.282-.654-.714-.654h-2.985v1.31h2.985c.432 0 .714-.285.714-.656zm.238 3.97c0-.415-.325-.74-.822-.74h-3.115v1.46h3.115c.476 0 .822-.284.822-.72z" id="Fill-17" fill="#fff"/><path d="M156.784 59.902V49.367h3.332v5.52l3.72-5.52h3.355v10.535h-3.33V54.1l-3.896 5.802h-3.18" id="Fill-18" fill="#fff"/><path d="M168.48 54.624c0-3.294 2.444-5.518 5.71-5.518 2.25 0 3.657 1.003 4.285 1.94l-2.164 2.03c-.41-.612-1.08-1.004-1.968-1.004-1.384 0-2.445.96-2.445 2.552s1.06 2.573 2.445 2.573c.887 0 1.558-.436 1.97-1.025l2.163 2.05c-.628.917-2.034 1.942-4.284 1.942-3.266 0-5.71-2.225-5.71-5.54" id="Fill-19" fill="#fff"/><path d="M.175 65.684h178.453v.88H.175v-.88z" id="Fill-20" fill="#fff"/><path d="M3.872 77.657v-4.3h-2.48v4.3H.276v-5.292h4.723v5.292H3.872" id="Fill-21" fill="#fff"/><path d="M8.158 77.657v-5.292h2.455c1.142 0 1.763.778 1.763 1.706 0 .922-.63 1.707-1.763 1.707H9.276v1.88H8.158zm3.078-3.586c0-.443-.33-.713-.772-.713H9.276v1.428h1.188c.44 0 .772-.278.772-.714z" id="Fill-22" fill="#fff"/><path d="M15.012 75.016c0-1.595 1.156-2.738 2.738-2.738 1.59 0 2.747 1.143 2.747 2.738 0 1.594-1.157 2.736-2.747 2.736-1.582 0-2.738-1.142-2.738-2.736zm4.336 0c0-.993-.63-1.738-1.598-1.738-.968 0-1.59.745-1.59 1.738 0 .983.622 1.737 1.59 1.737.968 0 1.598-.754 1.598-1.737z" id="Fill-23" fill="#fff"/><path d="M27.95 77.657v-3.705l-1.48 3.705h-.49l-1.48-3.705v3.705h-1.116v-5.292h1.566l1.275 3.198 1.275-3.198h1.574v5.292H27.95" id="Fill-24" fill="#fff"/><path d="M33.362 72.365v1.88H34.7c1.133 0 1.763.786 1.763 1.706 0 .93-.622 1.707-1.763 1.707h-2.456v-5.292h1.118zm0 2.872v1.43h1.188c.44 0 .772-.27.772-.716 0-.435-.33-.713-.772-.713h-1.188zm3.542-2.872h1.125v5.292h-1.126v-5.292z" id="Fill-25" fill="#fff"/><path d="M47.898 72.365v5.292H41.2v-5.292h1.118v4.3h1.668v-4.3h1.126v4.3h1.66v-4.3h1.126" id="Fill-26" fill="#fff"/><path d="M50.706 76.753c.527 0 .834-.286 1-1.682l.306-2.705h3.73v5.292h-1.125v-4.3H53.02l-.205 1.793c-.252 2.198-1.04 2.602-2.11 2.602v-1" id="Fill-27" fill="#fff"/><path d="M58.905 77.657v-5.292h3.715v.992h-2.597v1.12h2.542v.99h-2.542v1.2h2.597v.99h-3.715" id="Fill-28" fill="#fff"/><path d="M69.266 77.657v-2.222h-2.48v2.222H65.67v-5.292h1.117v2.08h2.48v-2.08h1.125v5.292h-1.126" id="Fill-29" fill="#fff"/><path d="M77.15 77.657v-2.222h-2.478v2.222h-1.118v-5.292h1.118v2.08h2.48v-2.08h1.125v5.292H77.15" id="Fill-30" fill="#fff"/><path d="M82.557 72.365v1.88h1.338c1.133 0 1.763.786 1.763 1.706 0 .93-.622 1.707-1.763 1.707H81.44v-5.292h1.117zm0 2.872v1.43h1.188c.44 0 .77-.27.77-.716 0-.435-.33-.713-.77-.713h-1.188zm3.542-2.872h1.124v5.292H86.1v-5.292z" id="Fill-31" fill="#fff"/><path d="M90.395 77.657v-5.292h1.117v3.42l2.432-3.42h1.15v5.292h-1.12V74.11l-2.5 3.547h-1.08zm2.353-5.538c-.56 0-1.063-.27-1.386-.7l.44-.37c.214.3.536.49.946.49.393 0 .716-.182.936-.49l.44.37c-.314.43-.81.7-1.376.7z" id="Fill-32" fill="#fff"/><path d="M105.96 77.657l-1.314-1.936-1.323 1.937h-1.33l1.905-2.714-1.787-2.578h1.33l1.206 1.81 1.187-1.81h1.347l-1.787 2.57 1.904 2.722h-1.337" id="Fill-33" fill="#fff"/><path d="M109.402 75.016c0-1.595 1.157-2.738 2.738-2.738 1.59 0 2.748 1.143 2.748 2.738 0 1.594-1.157 2.736-2.748 2.736-1.58 0-2.738-1.142-2.738-2.736zm4.336 0c0-.993-.63-1.738-1.598-1.738-.968 0-1.59.745-1.59 1.738 0 .983.622 1.737 1.59 1.737.97 0 1.598-.754 1.598-1.737z" id="Fill-34" fill="#fff"/><path d="M117.32 76.753c.53 0 .835-.286 1-1.682l.307-2.705h3.73v5.292h-1.125v-4.3h-1.597l-.205 1.793c-.25 2.198-1.04 2.602-2.11 2.602v-1" id="Fill-35" fill="#fff"/><path d="M125.154 76.753c.536-.072.835-.286 1-1.682l.307-2.705h3.73v4.3h.474v1.968h-1.118v-.976h-3.274v.976h-1.118v-1.88zm1.472-.087h2.44v-3.31h-1.598l-.204 1.794c-.078.715-.307 1.207-.638 1.516z" id="Fill-36" fill="#fff"/><path d="M133.515 77.657v-5.292h1.118v3.42l2.43-3.42h1.15v5.292h-1.117V74.11l-2.503 3.547h-1.078" id="Fill-37" fill="#fff"/><path d="M144.977 77.657v-2.222H142.5v2.222h-1.12v-5.292h1.12v2.08h2.477v-2.08h1.126v5.292h-1.126" id="Fill-38" fill="#fff"/><path d="M149.265 77.657v-5.292h3.715v.992h-2.597v4.3h-1.118" id="Fill-39" fill="#fff"/><path d="M161.375 77.657v-4.3h-1.534v-.992h4.188v.992H162.5v4.3h-1.125" id="Fill-40" fill="#fff"/><path d="M169.938 77.657l-1.59-2.118-.41.49v1.627h-1.117v-5.292h1.118v2.365l1.858-2.365h1.378l-2.087 2.484 2.228 2.807h-1.377" id="Fill-41" fill="#fff"/><path d="M173.326 75.016c0-1.627 1.22-2.738 2.794-2.738 1.157 0 1.826.635 2.195 1.294l-.96.475c-.22-.428-.692-.77-1.235-.77-.952 0-1.645.74-1.645 1.74 0 .998.693 1.736 1.645 1.736.543 0 1.015-.334 1.235-.77l.96.468c-.377.66-1.038 1.302-2.195 1.302-1.574 0-2.794-1.11-2.794-2.736" id="Fill-42" fill="#fff"/><path d="M186.162.462l.757 2.363 2.46-.003-1.993 1.455.767 2.36-1.992-1.465-1.99 1.464.767-2.36-1.997-1.454 2.463.003.756-2.363" id="Fill-43" fill="#B01C33"/><path d="M203.802 5.234c.252.787.506 1.574.757 2.36.818 0 1.64 0 2.463-.002-.665.484-1.33.97-1.998 1.456.258.785.512 1.57.767 2.36-.66-.49-1.326-.977-1.99-1.464-.663.487-1.326.975-1.988 1.464.255-.79.51-1.575.764-2.36-.664-.485-1.328-.972-1.994-1.456.82.002 1.64.002 2.462.003.25-.787.505-1.574.756-2.36" id="Fill-44" fill="#B01C33"/><path d="M216.72 18.252c.25.79.502 1.576.756 2.366.82-.004 1.642-.006 2.462-.006-.665.485-1.33.97-1.996 1.454.254.787.51 1.57.766 2.36-.664-.49-1.328-.975-1.988-1.462-.664.487-1.33.973-1.993 1.463.26-.79.512-1.574.768-2.36-.668-.485-1.33-.97-1.994-1.455.82 0 1.64.002 2.46.006.253-.79.508-1.576.76-2.366" id="Fill-45" fill="#B01C33"/><path d="M221.45 36.036c.252.788.503 1.574.758 2.363.82-.003 1.642-.005 2.463-.005-.666.485-1.33.97-1.996 1.457.258.785.512 1.57.766 2.358-.665-.488-1.326-.975-1.99-1.463-.662.488-1.325.975-1.988 1.463.255-.787.508-1.573.764-2.358-.663-.488-1.328-.972-1.994-1.457.82 0 1.642.002 2.462.004.252-.79.506-1.576.757-2.364" id="Fill-46" fill="#B01C33"/><path d="M216.72 53.82c.25.788.502 1.575.756 2.363.82 0 1.642-.004 2.462-.004-.665.483-1.33.968-1.996 1.455.254.784.51 1.572.766 2.36-.664-.49-1.328-.977-1.988-1.465-.664.488-1.33.976-1.993 1.464.26-.787.512-1.575.768-2.36-.668-.486-1.33-.97-1.994-1.455.82 0 1.64.003 2.46.003.253-.788.508-1.575.76-2.362" id="Fill-47" fill="#B01C33"/><path d="M203.802 66.84c.252.788.506 1.575.757 2.363.818 0 1.64-.005 2.463-.005-.665.486-1.33.97-1.998 1.456.258.785.512 1.57.767 2.36-.66-.487-1.326-.976-1.99-1.463-.663.488-1.326.977-1.988 1.465.255-.79.51-1.576.764-2.36-.664-.488-1.328-.97-1.994-1.457.82 0 1.64.005 2.462.005.25-.788.505-1.575.756-2.362" id="Fill-48" fill="#B01C33"/><path d="M186.162 71.61c.25.787.503 1.575.757 2.362.82 0 1.642-.002 2.46-.004-.665.484-1.33.97-1.993 1.456.256.788.51 1.57.767 2.36-.663-.488-1.33-.977-1.992-1.462-.662.485-1.324.974-1.987 1.463.252-.79.507-1.573.764-2.36-.666-.486-1.33-.973-1.997-1.457.82.002 1.64.004 2.465.004.25-.787.503-1.575.754-2.362" id="Fill-49" fill="#B01C33"/><path d="M150.873 36.036c.255.788.506 1.574.76 2.363.82-.003 1.64-.005 2.463-.005-.667.485-1.33.97-1.997 1.457.254.785.508 1.57.765 2.358-.662-.488-1.326-.975-1.992-1.463-.66.488-1.323.975-1.988 1.463.255-.787.512-1.573.765-2.358-.664-.488-1.33-.972-1.995-1.457.82 0 1.643.002 2.465.004.25-.79.502-1.576.753-2.364" id="Fill-50" fill="#B01C33"/><path d="M155.608 18.252c.25.79.502 1.576.753 2.366.823-.004 1.646-.006 2.465-.006-.664.485-1.33.97-1.995 1.454.255.787.51 1.57.767 2.36-.663-.49-1.33-.975-1.99-1.462-.663.487-1.326.973-1.99 1.463.257-.79.51-1.574.766-2.36-.666-.485-1.33-.97-1.994-1.455.818 0 1.64.002 2.46.006.252-.79.504-1.576.758-2.366" id="Fill-51" fill="#B01C33"/><path d="M168.52 5.234l.76 2.363 2.46-.005-1.995 1.456.767 2.36-1.992-1.464-1.99 1.464.767-2.36-1.996-1.456 2.465.005.755-2.363" id="Fill-52" fill="#B01C33"/><path d="M195.956 21.185l-25.2 17.32h15.362l5.42 18.167 4.418-35.487zm2.9-4.78l-6.393 51.356-8.043-26.956h-21.057l35.493-24.398z" id="Fill-53" fill="#B01C33"/><path d="M195.06 37.623l-6.9 11.72-.456-1.527 7.72-13.11-.363 2.917zm2.344-18.826l-1.166.802-11.814 20.055h.846l.17.572 11.787-20.012.177-1.418zm-2.937 2.018l-3.54 2.435-9.665 16.405h2.108l11.097-18.84zm-5.313 3.653l-7.082 4.87-6.08 10.317h4.218l8.944-15.187zm-8.854 6.085l-5.36 9.102h-7.882l13.242-9.102zm5.71 11.585l.455 1.525 9.947-16.89.363-2.915-10.765 18.28z" id="Fill-54" fill="#B01C33"/></g></svg>