<svg width="239" height="56" viewBox="0 0 239 56" xmlns="http://www.w3.org/2000/svg"><g id="logo" fill="none" fill-rule="evenodd"><path d="M71.227 17.746l-.71-2.083H64.85l-.713 2.083h-4.2L65.344 3.28H70l5.428 14.466h-4.2zm-3.555-10.78L65.84 12.41h3.664l-1.832-5.443z" id="Fill-1" fill="#fff"/><path d="M79.37 16.51v5.226h-3.317V7.27h3.318v1.215c.82-.998 1.9-1.475 3.084-1.475 2.607 0 4.568 1.952 4.568 5.487 0 3.557-1.96 5.51-4.567 5.51-1.163 0-2.22-.457-3.08-1.498zm4.267-4.013c0-1.56-.99-2.537-2.284-2.537-.71 0-1.572.39-1.982.954v3.188c.41.542 1.274.954 1.985.954 1.293 0 2.284-.976 2.284-2.56z" id="Fill-2" fill="#fff"/><path d="M96.64 10.177h-4.935v7.57h-3.317V7.27h8.252v2.907" id="Fill-3" fill="#fff"/><path d="M98.543 18.85c.237.132.56.197.82.197.753 0 1.227-.152 1.4-.586l.237-.56-4.137-10.63h3.49l2.35 6.637 2.37-6.636h3.51l-4.696 11.974c-.84 2.212-2.413 2.71-4.396 2.754-.3 0-1.074-.065-1.42-.173l.475-2.972" id="Fill-4" fill="#fff"/><path d="M108.1 12.497c0-3.275 2.435-5.487 5.688-5.487 2.242 0 3.642.998 4.266 1.93l-2.154 2.017c-.41-.607-1.077-.997-1.96-.997-1.38 0-2.435.954-2.435 2.537s1.055 2.56 2.434 2.56c.88 0 1.55-.434 1.96-1.02l2.152 2.04c-.624.91-2.024 1.93-4.266 1.93-3.253 0-5.688-2.213-5.688-5.51" id="Fill-5" fill="#fff"/><path d="M71.14 36.675V25.463h-5.967v11.212h-3.707V22.21h13.38v14.465H71.14" id="Fill-6" fill="#fff"/><path d="M83.025 36.675v-1.04c-.646.78-1.895 1.3-3.232 1.3-1.594 0-3.576-1.084-3.576-3.448 0-2.538 1.982-3.36 3.576-3.36 1.38 0 2.608.432 3.232 1.213v-1.258c0-.91-.775-1.518-2.11-1.518-1.035 0-2.112.39-2.953 1.106l-1.185-2.103c1.336-1.15 3.124-1.627 4.72-1.627 2.498 0 4.847.933 4.847 4.186v6.55h-3.32zm0-2.69v-.932c-.344-.477-1.12-.737-1.852-.737-.884 0-1.66.39-1.66 1.215 0 .827.776 1.217 1.66 1.217.732 0 1.508-.26 1.852-.76z" id="Fill-7" fill="#fff"/><path d="M88.25 36.675V26.2h3.318v5.487l3.706-5.487h3.34v10.475h-3.318v-5.77l-3.88 5.77H88.25zm5.193-11.45c-1.53 0-2.91-.738-3.793-1.91l1.422-1.17c.54.737 1.336 1.257 2.37 1.257.992 0 1.81-.455 2.35-1.257l1.42 1.17c-.86 1.172-2.218 1.91-3.77 1.91z" id="Fill-8" fill="#fff"/><path d="M107.59 36.675v-7.57h-3.728v7.57h-3.32V26.2h10.365v10.475h-3.318" id="Fill-9" fill="#fff"/><path d="M112.077 34.203c.775 0 1.292-.694 1.594-2.97l.69-5.033h8.9v10.475h-3.32v-7.57h-2.712l-.323 2.56c-.43 3.427-1.767 5.27-4.826 5.27v-2.732" id="Fill-10" fill="#fff"/><path d="M131.36 36.675v-1.04c-.647.78-1.896 1.3-3.232 1.3-1.595 0-3.577-1.084-3.577-3.448 0-2.538 1.985-3.36 3.58-3.36 1.378 0 2.607.432 3.23 1.213v-1.258c0-.91-.774-1.518-2.11-1.518-1.034 0-2.112.39-2.952 1.106l-1.185-2.103c1.337-1.15 3.125-1.627 4.72-1.627 2.5 0 4.848.933 4.848 4.186v6.55h-3.317zm0-2.69v-.932c-.345-.477-1.12-.737-1.854-.737-.883 0-1.66.39-1.66 1.215 0 .827.777 1.217 1.66 1.217.733 0 1.51-.26 1.854-.76z" id="Fill-11" fill="#fff"/><path d="M136.584 36.675V26.2h3.318v5.487l3.705-5.487h3.34v10.475h-3.317v-5.77l-3.88 5.77h-3.166zm5.192-11.45c-1.53 0-2.908-.738-3.792-1.91l1.422-1.17c.54.737 1.336 1.257 2.37 1.257.99 0 1.81-.455 2.35-1.257l1.42 1.17c-.86 1.172-2.218 1.91-3.77 1.91z" id="Fill-12" fill="#fff"/><path d="M148.884 36.675V26.2h3.318v3.6h3.727v-3.6h3.315v10.475h-3.318v-3.97H152.2v3.97h-3.318" id="Fill-13" fill="#fff"/><path d="M166.1 29.453c0-4.467 3.362-7.482 7.78-7.482 3.468 0 5.32 1.977 6.27 3.885l-3.19 1.518c-.473-1.148-1.702-2.102-3.08-2.102-2.35 0-4.008 1.82-4.008 4.186 0 2.364 1.66 4.186 4.008 4.186 1.378 0 2.607-.954 3.08-2.104l3.19 1.518c-.927 1.866-2.802 3.883-6.27 3.883-4.418 0-7.78-3.038-7.78-7.484" id="Fill-14" fill="#fff"/><path d="M180.624 31.427c0-3.036 2.283-5.487 5.537-5.487 3.084 0 5.324 2.277 5.324 5.834v.715h-7.41c.193.974 1.097 1.863 2.605 1.863.732 0 2.003-.326 2.585-.89l1.4 2.082c-1.033.933-2.757 1.39-4.352 1.39-3.21 0-5.686-2.105-5.686-5.51zm5.537-2.906c-1.44 0-2 1.04-2.13 1.8h4.287c-.086-.735-.624-1.8-2.154-1.8z" id="Fill-15" fill="#fff"/><path d="M196.002 35.44v5.225h-3.318V26.2h3.318v1.215c.82-.998 1.896-1.475 3.08-1.475 2.608 0 4.57 1.952 4.57 5.487 0 3.556-1.962 5.51-4.57 5.51-1.163 0-2.218-.457-3.08-1.498zm4.266-4.013c0-1.562-.99-2.538-2.284-2.538-.71 0-1.573.39-1.982.952v3.187c.41.543 1.27.955 1.982.955 1.293 0 2.284-.976 2.284-2.56z" id="Fill-16" fill="#fff"/><path d="M205.02 36.675V26.2h7.066c2.22 0 3.275 1.367 3.275 2.69 0 1.236-.773 2.082-1.785 2.385 1.184.24 2.024 1.258 2.024 2.538 0 1.54-1.1 2.862-3.32 2.862h-7.26zm7-7.243c0-.39-.28-.65-.71-.65h-2.973v1.3h2.973c.43 0 .71-.282.71-.65zm.238 3.947c0-.415-.323-.74-.82-.74h-3.1v1.453h3.1c.475 0 .82-.282.82-.716z" id="Fill-17" fill="#fff"/><path d="M217.3 36.675V26.2h3.317v5.487l3.706-5.487h3.34v10.475h-3.318v-5.77l-3.878 5.77H217.3" id="Fill-18" fill="#fff"/><path d="M228.946 31.427c0-3.275 2.435-5.487 5.688-5.487 2.242 0 3.642.998 4.266 1.93l-2.154 2.017c-.41-.607-1.077-.998-1.96-.998-1.38 0-2.435.952-2.435 2.535s1.058 2.56 2.437 2.56c.884 0 1.552-.435 1.96-1.02l2.155 2.038c-.623.91-2.023 1.93-4.265 1.93-3.253 0-5.688-2.212-5.688-5.508" id="Fill-19" fill="#fff"/><path d="M51.163 3.31v10.74l-18.01 18.094c-1.372 1.4-3.276 2.27-5.384 2.283-4.218.026-7.656-3.396-7.68-7.638-.01-2.124.83-4.05 2.203-5.45l17.85-18.03h11.02" id="Fill-20" fill="#DB322A"/><path d="M37.425 36.19c-.027.026-.057.05-.083.077-2.463 2.795-6.04 4.578-10.045 4.603-7.478.044-13.576-6.02-13.62-13.548-.023-4.03 1.704-7.652 4.454-10.164.03-.027.05-.057.078-.084L34.108.88c-2.254-.593-4.615-.908-7.05-.894C12.1.076.05 12.35.135 27.403c.09 15.052 12.285 27.183 27.24 27.093 14.955-.088 27.006-12.364 26.918-27.416-.014-2.453-.355-4.826-.973-7.083L37.426 36.19" id="Fill-21" fill="#fff"/><path id="Stroke-22" stroke="#fff" d="M60.76 42.862h177.937"/><path d="M64.202 54.33v-4.277h-2.468v4.276H60.62v-5.265h4.703v5.262h-1.12" id="Fill-23" fill="#fff"/><path d="M68.51 54.33v-5.263h2.445c1.136 0 1.756.773 1.756 1.697 0 .915-.624 1.696-1.753 1.696h-1.332v1.87H68.51zm3.064-3.566c0-.442-.33-.71-.768-.71h-1.183v1.42h1.183c.44 0 .768-.276.768-.71z" id="Fill-24" fill="#fff"/><path d="M75.374 51.703c0-1.587 1.152-2.722 2.727-2.722 1.587 0 2.74 1.138 2.74 2.725 0 1.585-1.153 2.72-2.737 2.72-1.574 0-2.726-1.135-2.726-2.72zm4.318 0c0-.987-.626-1.728-1.59-1.728-.965 0-1.584.74-1.584 1.728 0 .978.62 1.727 1.583 1.727.968 0 1.594-.75 1.594-1.727z" id="Fill-25" fill="#fff"/><path d="M88.297 54.33v-3.685l-1.474 3.684h-.486l-1.473-3.687v3.684H83.75v-5.263h1.56l1.27 3.18 1.27-3.18h1.567v5.262h-1.12" id="Fill-26" fill="#fff"/><path d="M93.727 49.067v1.87h1.333c1.128 0 1.755.78 1.755 1.696 0 .924-.62 1.696-1.755 1.696h-2.446v-5.265h1.113zm0 2.856v1.42h1.184c.44 0 .77-.268.77-.71 0-.434-.33-.71-.77-.71h-1.18zm3.527-2.856h1.12v5.262h-1.12v-5.265z" id="Fill-27" fill="#fff"/><path d="M108.242 49.067v5.262h-6.67v-5.265h1.113v4.276h1.66v-4.275h1.122v4.276h1.654v-4.275h1.124" id="Fill-28" fill="#fff"/><path d="M111.077 53.43c.525 0 .83-.284.996-1.672l.305-2.69h3.716v5.26h-1.122v-4.275h-1.59l-.205 1.784c-.25 2.185-1.034 2.587-2.1 2.587v-.994" id="Fill-29" fill="#fff"/><path d="M119.282 54.33v-5.263h3.7v.986h-2.587v1.113h2.532v.986h-2.532v1.19h2.587v.987h-3.7" id="Fill-30" fill="#fff"/><path d="M129.64 54.33v-2.21h-2.47v2.21h-1.112v-5.263h1.113v2.068h2.47v-2.068h1.12v5.262h-1.12" id="Fill-31" fill="#fff"/><path d="M137.53 54.33v-2.21h-2.468v2.21h-1.113v-5.263h1.11v2.068h2.47v-2.068h1.12v5.262h-1.12" id="Fill-32" fill="#fff"/><path d="M142.954 49.067v1.87h1.333c1.128 0 1.755.78 1.755 1.696 0 .924-.62 1.696-1.755 1.696h-2.446v-5.265h1.116zm0 2.856v1.42h1.184c.44 0 .768-.268.768-.71 0-.434-.33-.71-.768-.71h-1.184zm3.527-2.856h1.124v5.262h-1.12v-5.265z" id="Fill-33" fill="#fff"/><path d="M150.798 54.33v-5.263h1.114v3.4l2.42-3.4h1.145v5.262h-1.113V50.8l-2.492 3.526h-1.074zm2.344-5.507c-.557 0-1.058-.268-1.38-.694l.44-.374c.21.3.532.49.94.49.392 0 .713-.183.932-.49l.44.37c-.314.427-.808.695-1.372.695z" id="Fill-34" fill="#fff"/><path d="M166.378 54.33l-1.31-1.925-1.317 1.924h-1.32l1.896-2.7-1.78-2.565h1.325l1.2 1.8 1.183-1.8h1.34l-1.78 2.557 1.898 2.705h-1.33" id="Fill-35" fill="#fff"/><path d="M169.845 51.703c0-1.587 1.152-2.722 2.727-2.722 1.584 0 2.736 1.138 2.736 2.725 0 1.585-1.152 2.72-2.736 2.72-1.575 0-2.727-1.135-2.727-2.72zm4.32 0c0-.987-.628-1.728-1.593-1.728-.964 0-1.583.74-1.583 1.728 0 .978.616 1.727 1.58 1.727.965 0 1.592-.75 1.592-1.727z" id="Fill-36" fill="#fff"/><path d="M177.77 53.43c.525 0 .83-.284.996-1.672l.305-2.69h3.718v5.26h-1.12v-4.275h-1.592l-.203 1.784c-.25 2.185-1.034 2.587-2.1 2.587v-.994" id="Fill-37" fill="#fff"/><path d="M185.61 53.43c.534-.07.832-.284.996-1.672l.306-2.69h3.715v4.275h.47V55.3h-1.112v-.97h-3.26v.97h-1.114v-1.87zm1.467-.087h2.43v-3.29h-1.592l-.204 1.784c-.075.71-.302 1.2-.63 1.506z" id="Fill-38" fill="#fff"/><path d="M193.976 54.33v-5.263h1.113v3.4l2.42-3.4h1.143v5.262h-1.113V50.8l-2.49 3.526h-1.075" id="Fill-39" fill="#fff"/><path d="M205.43 54.33v-2.21h-2.468v2.21h-1.114v-5.263h1.114v2.068h2.468v-2.068h1.12v5.262h-1.12" id="Fill-40" fill="#fff"/><path d="M209.74 54.33v-5.263h3.7v.986h-2.587v4.276h-1.113" id="Fill-41" fill="#fff"/><path d="M221.88 54.33v-4.277h-1.53v-.986h4.17v.986H223v4.276h-1.12" id="Fill-42" fill="#fff"/><path d="M230.445 54.33l-1.584-2.107-.404.49v1.616h-1.113v-5.265h1.114v2.35l1.85-2.35h1.37l-2.076 2.47 2.22 2.792h-1.37" id="Fill-43" fill="#fff"/><path d="M233.858 51.703c0-1.618 1.215-2.722 2.782-2.722 1.152 0 1.82.634 2.187 1.29l-.957.472c-.22-.425-.69-.764-1.23-.764-.948 0-1.638.734-1.638 1.728s.69 1.727 1.638 1.727c.54 0 1.01-.33 1.23-.764l.957.464c-.376.656-1.035 1.295-2.187 1.295-1.567 0-2.782-1.105-2.782-2.72" id="Fill-44" fill="#fff"/></g></svg>