<svg width="46" height="40" viewBox="0 0 46 40" xmlns="http://www.w3.org/2000/svg"><g id="photos" transform="translate(-477 -827) translate(477 828)" fill="#fff" fill-rule="evenodd"><path d="M38.31 38.99H6.94C3.246 38.99.24 35.985.24 32.29v-19.96c0-3.697 3.007-6.704 6.703-6.704h4.298l.893-2.38C12.84 1.377 14.943-.08 16.923-.08h11.406c1.98 0 4.084 1.458 4.79 3.32l.894 2.384h4.297c3.695 0 6.702 3.007 6.702 6.703v19.96c0 3.697-3.007 6.704-6.703 6.704zM6.94 7.625c-2.592 0-4.702 2.11-4.702 4.703v19.96c0 2.594 2.11 4.704 4.703 4.704h31.37c2.592 0 4.702-2.11 4.702-4.702v-19.96c0-2.594-2.11-4.704-4.703-4.704h-5.685l-1.38-3.68c-.407-1.075-1.77-2.023-2.917-2.023H16.922c-1.146 0-2.51.95-2.92 2.03l-1.377 3.674H6.94z" id="Fill-1"/><path d="M22.625 29.224c-3.813 0-6.916-3.103-6.916-6.916 0-3.814 3.102-6.916 6.915-6.916s6.916 3.102 6.916 6.916c0 3.813-3.102 6.916-6.915 6.916zm0-12.832c-3.262 0-5.916 2.653-5.916 5.916 0 3.262 2.653 5.916 5.915 5.916s5.916-2.654 5.916-5.916c0-3.263-2.653-5.916-5.915-5.916z" id="Fill-2"/></g></svg>