<svg width="46" height="38" viewBox="0 0 46 38" xmlns="http://www.w3.org/2000/svg"><g id="i-1" transform="translate(1 1)" fill="#63B1FF" fill-rule="evenodd"><path d="M18.13 25.288c-3.852 0-6.987-3.147-6.987-7.015s3.135-7.014 6.988-7.014c3.855 0 6.99 3.145 6.99 7.013s-3.135 7.015-6.99 7.015zm0-11.388c-2.4 0-4.355 1.962-4.355 4.373 0 2.41 1.954 4.373 4.356 4.373 2.404 0 4.358-1.962 4.358-4.373 0-2.41-1.954-4.373-4.357-4.373z" id="Fill-1"/><path d="M30.502 9.86H44.11v16.33H30.5V9.86zm2.632 13.69h8.343V12.5h-8.343V23.55z" id="Fill-2"/><path d="M27 12.814h4.92V15.5H27v-2.686z" id="Fill-3"/><path d="M27 20.41h4.92v2.686H27V20.41z" id="Fill-4"/><path d="M18.13 36.76C7.977 36.76-.284 28.465-.284 18.272-.285 8.08 7.975-.212 18.13-.212c6.102 0 11.758 3.01 15.207 8.074h-3.483c-2.98-3.376-7.247-5.31-11.723-5.31-8.636 0-15.66 7.052-15.66 15.72 0 8.67 7.024 15.724 15.66 15.724 4.76 0 9.2-2.14 12.198-5.875h3.382c-3.404 5.417-9.2 8.64-15.58 8.64" id="Fill-5"/></g></svg>