<?xml version="1.0" encoding="UTF-8" standalone="no"?>
<svg width="61px" height="61px" viewBox="0 0 61 61" version="1.1" xmlns="http://www.w3.org/2000/svg" xmlns:xlink="http://www.w3.org/1999/xlink" xmlns:sketch="http://www.bohemiancoding.com/sketch/ns">
    <!-- Generator: Sketch 3.0.4 (8053) - http://www.bohemiancoding.com/sketch -->
    <title>close</title>
    <desc>Created with Sketch.</desc>
    <defs></defs>
    <g id="Page-1" stroke="none" stroke-width="1" fill="none" fill-rule="evenodd" sketch:type="MSPage">
        <g id="Landscape-Retina" sketch:type="MSArtboardGroup" transform="translate(-682.000000, -928.000000)" fill="#0045D2">
            <g id="close" sketch:type="MSLayerGroup" transform="translate(682.000000, 928.000000)">
                <path d="M30.441,0 C13.655,0 0,13.656 0,30.442 C0,47.227 13.655,60.884 30.441,60.884 C47.226,60.884 60.882,47.227 60.882,30.442 C60.882,13.656 47.226,0 30.441,0 L30.441,0 Z M30.441,58.884 C14.758,58.884 2,46.125 2,30.442 C2,14.759 14.758,2 30.441,2 C46.124,2 58.882,14.759 58.882,30.442 C58.882,46.125 46.124,58.884 30.441,58.884 L30.441,58.884 Z" id="Imported-Layers" sketch:type="MSShapeGroup"></path>
                <path d="M31.5632662,29.9102662 L19.653,18 L18.239,19.414 L30.1490047,31.3244722 L18,43.473 L19.414,44.888 L31.5632385,32.7387615 L43.712,44.888 L45.126,43.473 L32.9775,31.3245 L44.888,19.414 L43.474,18 L31.5632662,29.9102662 Z" id="Imported-Layers" sketch:type="MSShapeGroup"></path>
            </g>
        </g>
    </g>
</svg>