<?xml version="1.0" encoding="UTF-8" standalone="no"?>
<svg width="39px" height="39px" viewBox="0 0 39 39" version="1.1" xmlns="http://www.w3.org/2000/svg" xmlns:xlink="http://www.w3.org/1999/xlink" xmlns:sketch="http://www.bohemiancoding.com/sketch/ns">
    <!-- Generator: Sketch 3.0.4 (8053) - http://www.bohemiancoding.com/sketch -->
    <title>i-4</title>
    <desc>Created with Sketch.</desc>
    <defs></defs>
    <g id="Page-1" stroke="none" stroke-width="1" fill="none" fill-rule="evenodd" sketch:type="MSPage">
        <g id="i-4" sketch:type="MSLayerGroup" fill="#63B1FF">
            <path d="M19.4080299,29.7930896 C13.7146119,29.7930896 9.08234328,25.1608209 9.08234328,19.467403 C9.08234328,13.7739851 13.7146119,9.14229851 19.4080299,9.14229851 C25.1014478,9.14229851 29.7331343,13.7739851 29.7331343,19.467403 C29.7331343,25.1608209 25.1014478,29.7930896 19.4080299,29.7930896 L19.4080299,29.7930896 Z M19.4080299,11.2960299 C14.9020746,11.2960299 11.2360746,14.9620299 11.2360746,19.467403 C11.2360746,23.9733582 14.9020746,27.6387761 19.4080299,27.6387761 C23.913403,27.6387761 27.579403,23.9733582 27.579403,19.467403 C27.579403,14.9620299 23.913403,11.2960299 19.4080299,11.2960299 L19.4080299,11.2960299 Z" id="Fill-1" sketch:type="MSShapeGroup"></path>
            <path d="M19.4080299,25.8977463 C15.8625224,25.8977463 12.9776866,23.0134925 12.9776866,19.467403 C12.9776866,15.9218955 15.8625224,13.0370597 19.4080299,13.0370597 C22.9535373,13.0370597 25.8383731,15.9218955 25.8383731,19.467403 C25.8383731,23.0134925 22.9535373,25.8977463 19.4080299,25.8977463 L19.4080299,25.8977463 Z M19.4080299,15.190791 C17.049403,15.190791 15.1314179,17.1093582 15.1314179,19.467403 C15.1314179,21.8260299 17.049403,23.7440149 19.4080299,23.7440149 C21.7660746,23.7440149 23.6846418,21.8260299 23.6846418,19.467403 C23.6846418,17.1093582 21.7660746,15.190791 19.4080299,15.190791 L19.4080299,15.190791 Z" id="Fill-2" sketch:type="MSShapeGroup"></path>
            <path d="M19.4103582,38.8370149 C8.7301791,38.8370149 0.0413283582,30.1475821 0.0413283582,19.467403 C0.0413283582,8.78722388 8.7301791,0.0983731343 19.4103582,0.0983731343 C30.0905373,0.0983731343 38.7799701,8.78722388 38.7799701,19.467403 C38.7799701,30.1475821 30.0905373,38.8370149 19.4103582,38.8370149 L19.4103582,38.8370149 Z M19.4103582,2.25210448 C9.91764179,2.25210448 2.1950597,9.97468657 2.1950597,19.467403 C2.1950597,28.9601194 9.91764179,36.6827015 19.4103582,36.6827015 C28.9030746,36.6827015 36.6262388,28.9601194 36.6262388,19.467403 C36.6262388,9.97468657 28.9030746,2.25210448 19.4103582,2.25210448 L19.4103582,2.25210448 Z" id="Fill-3" sketch:type="MSShapeGroup"></path>
        </g>
    </g>
</svg>