<svg width="39" height="39" viewBox="0 0 39 39" xmlns="http://www.w3.org/2000/svg"><g id="i-6" fill="#63B1FF" fill-rule="evenodd"><path d="M19.408 3.537c-8.784 0-15.93 7.146-15.93 15.93 0 8.785 7.146 15.93 15.93 15.93 8.784 0 15.93-7.145 15.93-15.93 0-8.784-7.146-15.93-15.93-15.93zm0 29.716c-7.6 0-13.786-6.184-13.786-13.786 0-7.6 6.185-13.785 13.786-13.785 7.6 0 13.785 6.184 13.785 13.785 0 7.602-6.184 13.786-13.785 13.786z" id="Fill-1"/><path d="M19.41 38.837c-10.68 0-19.37-8.69-19.37-19.37C.04 8.787 8.73.097 19.41.097c10.68 0 19.37 8.69 19.37 19.37 0 10.68-8.69 19.37-19.37 19.37zm0-36.585c-9.492 0-17.215 7.723-17.215 17.215 0 9.493 7.723 17.216 17.215 17.216 9.493 0 17.216-7.723 17.216-17.216 0-9.492-7.723-17.215-17.216-17.215z" id="Fill-2"/><path d="M19.408 15.074c-2.423 0-4.393 1.97-4.393 4.393 0 2.422 1.97 4.393 4.393 4.393 2.422 0 4.393-1.97 4.393-4.393 0-2.422-1.97-4.393-4.39-4.393zm0 6.64c-1.24 0-2.248-1.007-2.248-2.247s1.008-2.248 2.248-2.248c1.24 0 2.248 1.007 2.248 2.246 0 1.24-1.01 2.248-2.248 2.248z" id="Fill-3"/><path d="M22.784 18.477c.092.315.144.647.144.99 0 .344-.052.676-.144.99h11.904v-1.98H22.784zM7.904 9.363l8.416 8.417c.324-.59.81-1.076 1.4-1.4L9.303 7.963l-1.4 1.4zm7.984 10.104c0-.343.052-.675.144-.99H4.128v1.98h11.904c-.092-.314-.144-.646-.144-.99zm6.607-1.688l8.417-8.418-1.4-1.4-8.416 8.417c.59.322 1.076.81 1.4 1.4zm-6.175 3.374L7.903 29.57l1.4 1.4 8.417-8.416c-.59-.324-1.076-.81-1.4-1.4zm4.776 1.4l8.416 8.417 1.4-1.4-8.417-8.416c-.323.59-.81 1.077-1.4 1.4zm-2.678-6.463c.314-.092.646-.143.99-.143s.675.05.99.144V4.19h-1.98v11.904zm0 6.75v11.906h1.98V22.844c-.315.09-.646.143-.99.143s-.676-.052-.99-.144z" id="Fill-4"/></g></svg>