<svg width="37" height="41" viewBox="0 0 37 41" xmlns="http://www.w3.org/2000/svg"><g id="i-7" transform="translate(0 1)" fill="#63B1FF" fill-rule="evenodd"><path d="M4.675 26.486c.6 0 1.088-.5 1.088-1.112 0-.614-.487-1.11-1.088-1.11-.6 0-1.088.496-1.088 1.11 0 .613.488 1.112 1.088 1.112" id="Fill-1"/><path d="M16.9 16.583c-.584.596-.584 1.564 0 2.16.584.596 1.532.596 2.116 0 .584-.596.584-1.564 0-2.16-.585-.596-1.532-.596-2.116 0" id="Fill-2"/><path d="M17.96 28.94c2.83 0 5.66-1.1 7.812-3.298 3.918-4 4.26-10.28 1.05-14.693l-1.36 1.387c2.478 3.64 2.138 8.688-1.037 11.93-3.168 3.235-8.1 3.585-11.662 1.07l-1.36 1.388c1.943 1.468 4.247 2.215 6.558 2.215" id="Fill-3"/><path d="M9 31.703V26.8l5.393-5.498c-.952-.97-1.477-2.264-1.477-3.64 0-1.374.524-2.668 1.476-3.64 1.967-2.006 5.166-2.006 7.132 0l5.77-5.954c-.478-.49-.99-.916-1.52-1.315l2.773-2.828c.384-.393.596-.917.596-1.474 0-.555-.212-1.08-.597-1.47l-.64-.655c-.77-.785-2.117-.786-2.886 0L20.96 4.47c-4.333-1.052-9.075.124-12.438 3.558-3.048 3.112-4.315 7.38-3.748 11.46l-4.04 4.125c-1.007 1.03-1.007 2.702 0 3.732l.522.532-.004 8.994H4.74v1.455c0 .537.426.972.95.972.527 0 .954-.435.954-.972V36.87H30.62v1.454c0 .537.428.973.954.973.525 0 .952-.436.952-.973V36.87h3.603v-5.167H9zM26.367 1.7c.032-.034.07-.04.097-.04.026 0 .064.007.096.04l.64.653c.03.033.04.07.04.098 0 .03-.008.068-.04.1l-3.066 3.13c-.37-.2-.748-.382-1.133-.545L26.368 1.7zM2.08 24.987l3.19-3.257c.002.003.003.006.003.008l1.55-1.582c-.84-3.767.2-7.85 3.045-10.753 3.977-4.06 10.206-4.442 14.653-1.18l-3.183 3.25c-2.643-1.503-6.047-1.115-8.29 1.175-1.312 1.34-2.035 3.12-2.034 5.015 0 1.23.308 2.408.88 3.452L5.1 28.067c-.266.27-.698.272-.963 0L2.08 25.97c-.264-.27-.264-.712 0-.982zm32.145 9.938H3.155l.005-5.174c.438.306.945.463 1.455.463.663 0 1.327-.26 1.834-.776l.646-.67-.002 4.88h27.13v1.278z" id="Fill-4"/></g></svg>