<?xml version="1.0" encoding="UTF-8" standalone="no"?>
<svg width="225px" height="79px" viewBox="0 0 225 79" version="1.1" xmlns="http://www.w3.org/2000/svg" xmlns:xlink="http://www.w3.org/1999/xlink" xmlns:sketch="http://www.bohemiancoding.com/sketch/ns" preserveAspectRatio="xMinYMid meet">
    <!-- Generator: Sketch 3.2.2 (9983) - http://www.bohemiancoding.com/sketch -->
    <title>logo</title>
    <desc>Created with Sketch.</desc>
    <defs></defs>
    <g id="Page-1" stroke="none" stroke-width="1" fill="none" fill-rule="evenodd" sketch:type="MSPage">
        <g id="Landscape-Retina" sketch:type="MSArtboardGroup" transform="translate(-870.000000, -767.000000)">
            <g id="logo" sketch:type="MSLayerGroup" transform="translate(870.000000, 767.000000)">
                <path d="M11.6514423,40.8648098 L10.9375,38.7710675 L5.24711538,38.7710675 L4.53365385,40.8648098 L0.314423077,40.8648098 L5.74471154,26.3171779 L10.4182692,26.3171779 L15.8701923,40.8648098 L11.6514423,40.8648098 L11.6514423,40.8648098 Z M8.08173077,30.024362 L6.24230769,35.4991104 L9.92067308,35.4991104 L8.08173077,30.024362 L8.08173077,30.024362 Z" id="Fill-1" fill="#FFFFFF" sketch:type="MSShapeGroup"></path>
                <path d="M19.8293269,39.6216503 L19.8293269,44.8773313 L16.4975962,44.8773313 L16.4975962,30.3296994 L19.8293269,30.3296994 L19.8293269,31.5515337 C20.6519231,30.5482822 21.7331731,30.0679816 22.9235577,30.0679816 C25.5413462,30.0679816 27.5100962,32.030865 27.5100962,35.5863497 C27.5100962,39.1636442 25.5413462,41.1265276 22.9235577,41.1265276 C21.7552885,41.1265276 20.6947115,40.6680368 19.8293269,39.6216503 L19.8293269,39.6216503 Z M24.1134615,35.5863497 C24.1134615,34.0165276 23.1177885,33.0350859 21.8201923,33.0350859 C21.1057692,33.0350859 20.2408654,33.4266933 19.8293269,33.9947178 L19.8293269,37.1997914 C20.2408654,37.7455215 21.1057692,38.159908 21.8201923,38.159908 C23.1177885,38.159908 24.1134615,37.1784663 24.1134615,35.5863497 L24.1134615,35.5863497 Z" id="Fill-2" fill="#FFFFFF" sketch:type="MSShapeGroup"></path>
                <path d="M37.1697115,33.2522147 L32.2149038,33.2522147 L32.2149038,40.8648098 L28.8831731,40.8648098 L28.8831731,30.3296994 L37.1697115,30.3296994 L37.1697115,33.2522147" id="Fill-3" fill="#FFFFFF" sketch:type="MSShapeGroup"></path>
                <path d="M39.08125,41.9771104 C39.3192308,42.1079693 39.6442308,42.1733988 39.9033654,42.1733988 C40.6605769,42.1733988 41.1365385,42.0207301 41.3096154,41.5845337 L41.5475962,41.0174785 L37.39375,30.3296994 L40.8985577,30.3296994 L43.2572115,37.0039877 L45.6365385,30.3296994 L49.1634615,30.3296994 L44.4471154,42.3701718 C43.6028846,44.5938037 42.0235577,45.0959141 40.0331731,45.1395337 C39.7302885,45.1395337 38.9514423,45.074589 38.6052885,44.9650552 L39.08125,41.9771104" id="Fill-4" fill="#FFFFFF" sketch:type="MSShapeGroup"></path>
                <path d="M48.6778846,35.5863497 C48.6778846,32.2925828 51.1225962,30.0679816 54.3894231,30.0679816 C56.6403846,30.0679816 58.0461538,31.0717178 58.6735577,32.0090552 L56.5105769,34.0383374 C56.0990385,33.4266933 55.4283654,33.0350859 54.5408654,33.0350859 C53.15625,33.0350859 52.0966346,33.9947178 52.0966346,35.5863497 C52.0966346,37.1784663 53.15625,38.159908 54.5408654,38.159908 C55.4283654,38.159908 56.0990385,37.7237117 56.5105769,37.1348466 L58.6735577,39.185454 C58.0461538,40.1009816 56.6403846,41.1265276 54.3894231,41.1265276 C51.1225962,41.1265276 48.6778846,38.9019264 48.6778846,35.5863497" id="Fill-5" fill="#FFFFFF" sketch:type="MSShapeGroup"></path>
                <path d="M10.01875,59.9023558 L10.01875,48.6261963 L4.02596154,48.6261963 L4.02596154,59.9023558 L0.304326923,59.9023558 L0.304326923,45.3547239 L13.7403846,45.3547239 L13.7403846,59.9023558 L10.01875,59.9023558" id="Fill-6" fill="#FFFFFF" sketch:type="MSShapeGroup"></path>
                <path d="M21.9528846,59.9023558 L21.9528846,58.855 C21.3038462,59.640638 20.0490385,60.1640736 18.7076923,60.1640736 C17.10625,60.1640736 15.1158654,59.0735828 15.1158654,56.6963129 C15.1158654,54.1435951 17.10625,53.3157914 18.7076923,53.3157914 C20.0923077,53.3157914 21.3254808,53.7519877 21.9528846,54.5361718 L21.9528846,53.2716871 C21.9528846,52.3556748 21.1740385,51.7445153 19.8326923,51.7445153 C18.7942308,51.7445153 17.7125,52.1375767 16.8682692,52.8573006 L15.6783654,50.7412638 C17.0201923,49.5858282 18.8153846,49.1055276 20.4168269,49.1055276 C22.9269231,49.1055276 25.2850962,50.0433497 25.2850962,53.3157914 L25.2850962,59.9023558 L21.9528846,59.9023558 L21.9528846,59.9023558 Z M21.9528846,57.197454 L21.9528846,56.2601166 C21.6067308,55.779816 20.8278846,55.5180982 20.0923077,55.5180982 C19.2052885,55.5180982 18.4264423,55.9106748 18.4264423,56.7394479 C18.4264423,57.5682209 19.2052885,57.9612822 20.0923077,57.9612822 C20.8278846,57.9612822 21.6067308,57.6995644 21.9528846,57.197454 L21.9528846,57.197454 Z" id="Fill-7" fill="#FFFFFF" sketch:type="MSShapeGroup"></path>
                <path d="M27.1990385,59.9023558 L27.1990385,49.3672454 L30.5307692,49.3672454 L30.5307692,54.8860982 L34.2524038,49.3672454 L37.6057692,49.3672454 L37.6057692,59.9023558 L34.2740385,59.9023558 L34.2740385,54.1004601 L30.3793269,59.9023558 L27.1990385,59.9023558 L27.1990385,59.9023558 Z M32.4129808,48.3858037 C30.8769231,48.3858037 29.4923077,47.6447546 28.6052885,46.4665399 L30.0331731,45.2888098 C30.5740385,46.0303436 31.3745192,46.5537791 32.4129808,46.5537791 C33.4081731,46.5537791 34.2302885,46.095773 34.7711538,45.2888098 L36.1995192,46.4665399 C35.3336538,47.6447546 33.9711538,48.3858037 32.4129808,48.3858037 L32.4129808,48.3858037 Z" id="Fill-8" fill="#FFFFFF" sketch:type="MSShapeGroup"></path>
                <path d="M46.6182692,59.9023558 L46.6182692,52.2902454 L42.8754808,52.2902454 L42.8754808,59.9023558 L39.54375,59.9023558 L39.54375,49.3672454 L49.9504808,49.3672454 L49.9504808,59.9023558 L46.6182692,59.9023558" id="Fill-9" fill="#FFFFFF" sketch:type="MSShapeGroup"></path>
                <path d="M51.1245192,57.4155521 C51.9038462,57.4155521 52.4221154,56.717638 52.7259615,54.428092 L53.4182692,49.3672454 L62.3533654,49.3672454 L62.3533654,59.9023558 L59.0216346,59.9023558 L59.0216346,52.2902454 L56.2951923,52.2902454 L55.9706731,54.8642883 C55.5384615,58.3097546 54.1966346,60.1640736 51.1245192,60.1640736 L51.1245192,57.4155521" id="Fill-10" fill="#FFFFFF" sketch:type="MSShapeGroup"></path>
                <path d="M70.4879808,59.9023558 L70.4879808,58.855 C69.8384615,59.640638 68.5836538,60.1640736 67.2418269,60.1640736 C65.6413462,60.1640736 63.6504808,59.0735828 63.6504808,56.6963129 C63.6504808,54.1435951 65.6413462,53.3157914 67.2418269,53.3157914 C68.6269231,53.3157914 69.8600962,53.7519877 70.4879808,54.5361718 L70.4879808,53.2716871 C70.4879808,52.3556748 69.7086538,51.7445153 68.3668269,51.7445153 C67.3288462,51.7445153 66.2466346,52.1375767 65.4033654,52.8573006 L64.2129808,50.7412638 C65.5548077,49.5858282 67.3504808,49.1055276 68.9509615,49.1055276 C71.4615385,49.1055276 73.8197115,50.0433497 73.8197115,53.3157914 L73.8197115,59.9023558 L70.4879808,59.9023558 L70.4879808,59.9023558 Z M70.4879808,57.197454 L70.4879808,56.2601166 C70.1413462,55.779816 69.3620192,55.5180982 68.6269231,55.5180982 C67.7399038,55.5180982 66.9605769,55.9106748 66.9605769,56.7394479 C66.9605769,57.5682209 67.7399038,57.9612822 68.6269231,57.9612822 C69.3620192,57.9612822 70.1413462,57.6995644 70.4879808,57.197454 L70.4879808,57.197454 Z" id="Fill-11" fill="#FFFFFF" sketch:type="MSShapeGroup"></path>
                <path d="M75.7336538,59.9023558 L75.7336538,49.3672454 L79.0658654,49.3672454 L79.0658654,54.8860982 L82.7860577,49.3672454 L86.1403846,49.3672454 L86.1403846,59.9023558 L82.8086538,59.9023558 L82.8086538,54.1004601 L78.9134615,59.9023558 L75.7336538,59.9023558 L75.7336538,59.9023558 Z M80.9475962,48.3858037 C79.4115385,48.3858037 78.0264423,47.6447546 77.1399038,46.4665399 L78.5677885,45.2888098 C79.1086538,46.0303436 79.9091346,46.5537791 80.9475962,46.5537791 C81.9423077,46.5537791 82.7649038,46.095773 83.3057692,45.2888098 L84.7341346,46.4665399 C83.8682692,47.6447546 82.5048077,48.3858037 80.9475962,48.3858037 L80.9475962,48.3858037 Z" id="Fill-12" fill="#FFFFFF" sketch:type="MSShapeGroup"></path>
                <path d="M88.0846154,59.9023558 L88.0846154,49.3672454 L91.4163462,49.3672454 L91.4163462,52.9881595 L95.1591346,52.9881595 L95.1591346,49.3672454 L98.4913462,49.3672454 L98.4913462,59.9023558 L95.1591346,59.9023558 L95.1591346,55.9106748 L91.4163462,55.9106748 L91.4163462,59.9023558 L88.0846154,59.9023558" id="Fill-13" fill="#FFFFFF" sketch:type="MSShapeGroup"></path>
                <path d="M105.373077,52.6392025 C105.373077,48.1463804 108.748558,45.114816 113.184135,45.114816 C116.667308,45.114816 118.527404,47.0990245 119.479808,49.018773 L116.277404,50.5454601 C115.801923,49.3890552 114.56875,48.429908 113.184135,48.429908 C110.825962,48.429908 109.160096,50.2619325 109.160096,52.6392025 C109.160096,55.0169571 110.825962,56.8484969 113.184135,56.8484969 C114.56875,56.8484969 115.801923,55.888865 116.277404,54.7334294 L119.479808,56.2601166 C118.549038,58.1352761 116.667308,60.1640736 113.184135,60.1640736 C108.748558,60.1640736 105.373077,57.1106994 105.373077,52.6392025" id="Fill-14" fill="#FFFFFF" sketch:type="MSShapeGroup"></path>
                <path d="M119.955288,54.6238957 C119.955288,51.5705215 122.249038,49.1055276 125.515385,49.1055276 C128.610096,49.1055276 130.860096,51.3960429 130.860096,54.9723681 L130.860096,55.6930613 L123.416827,55.6930613 C123.611538,56.6745031 124.520673,57.5682209 126.035096,57.5682209 C126.770673,57.5682209 128.046635,57.2415583 128.631731,56.6745031 L130.0375,58.7682454 C128.998558,59.7055828 127.268269,60.1640736 125.667308,60.1640736 C122.44375,60.1640736 119.955288,58.0480368 119.955288,54.6238957 L119.955288,54.6238957 Z M125.515385,51.7013804 C124.066346,51.7013804 123.503846,52.7477669 123.374038,53.5115951 L127.679327,53.5115951 C127.592788,52.7700613 127.051923,51.7013804 125.515385,51.7013804 L125.515385,51.7013804 Z" id="Fill-15" fill="#FFFFFF" sketch:type="MSShapeGroup"></path>
                <path d="M135.398077,58.6591963 L135.398077,63.9148773 L132.066346,63.9148773 L132.066346,49.3672454 L135.398077,49.3672454 L135.398077,50.5890798 C136.220673,49.5858282 137.302404,49.1055276 138.492308,49.1055276 C141.110096,49.1055276 143.079327,51.068411 143.079327,54.6238957 C143.079327,58.2011902 141.110096,60.1640736 138.492308,60.1640736 C137.324038,60.1640736 136.263462,59.7055828 135.398077,58.6591963 L135.398077,58.6591963 Z M139.682212,54.6238957 C139.682212,53.053589 138.687019,52.0721472 137.388462,52.0721472 C136.674519,52.0721472 135.809135,52.4642393 135.398077,53.0322638 L135.398077,56.2378221 C135.809135,56.7830675 136.674519,57.197454 137.388462,57.197454 C138.687019,57.197454 139.682212,56.2160123 139.682212,54.6238957 L139.682212,54.6238957 Z" id="Fill-16" fill="#FFFFFF" sketch:type="MSShapeGroup"></path>
                <path d="M144.452404,59.9023558 L144.452404,49.3672454 L151.549038,49.3672454 C153.776923,49.3672454 154.837981,50.7412638 154.837981,52.0721472 C154.837981,53.3157914 154.058173,54.1663742 153.041827,54.4717117 C154.23125,54.7116196 155.075481,55.736681 155.075481,57.0229755 C155.075481,58.5714724 153.971635,59.9023558 151.743269,59.9023558 L144.452404,59.9023558 L144.452404,59.9023558 Z M151.483654,52.6173926 C151.483654,52.224816 151.202404,51.9630982 150.769712,51.9630982 L147.784615,51.9630982 L147.784615,53.2716871 L150.769712,53.2716871 C151.202404,53.2716871 151.483654,52.9881595 151.483654,52.6173926 L151.483654,52.6173926 Z M151.721635,56.5867791 C151.721635,56.1723926 151.397115,55.8457301 150.899519,55.8457301 L147.784615,55.8457301 L147.784615,57.3065031 L150.899519,57.3065031 C151.375962,57.3065031 151.721635,57.0229755 151.721635,56.5867791 L151.721635,56.5867791 Z" id="Fill-17" fill="#FFFFFF" sketch:type="MSShapeGroup"></path>
                <path d="M156.783654,59.9023558 L156.783654,49.3672454 L160.115865,49.3672454 L160.115865,54.8860982 L163.836538,49.3672454 L167.190865,49.3672454 L167.190865,59.9023558 L163.858654,59.9023558 L163.858654,54.1004601 L159.963942,59.9023558 L156.783654,59.9023558" id="Fill-18" fill="#FFFFFF" sketch:type="MSShapeGroup"></path>
                <path d="M168.479327,54.6238957 C168.479327,51.3301288 170.923558,49.1055276 174.190865,49.1055276 C176.440865,49.1055276 177.847115,50.1092638 178.474519,51.0466012 L176.311058,53.0753988 C175.9,52.4642393 175.229327,52.0721472 174.342308,52.0721472 C172.957692,52.0721472 171.897115,53.0322638 171.897115,54.6238957 C171.897115,56.2160123 172.957692,57.197454 174.342308,57.197454 C175.229327,57.197454 175.9,56.7612577 176.311058,56.1723926 L178.474519,58.223 C177.847115,59.1385276 176.440865,60.1640736 174.190865,60.1640736 C170.923558,60.1640736 168.479327,57.9394724 168.479327,54.6238957" id="Fill-19" fill="#FFFFFF" sketch:type="MSShapeGroup"></path>
                <path d="M0.175,65.6843804 L178.628365,65.6843804 L178.628365,66.5654969 L0.175,66.5654969 L0.175,65.6843804 Z" id="Fill-20" fill="#FFFFFF" sketch:type="MSShapeGroup"></path>
                <path d="M3.87211538,77.6574847 L3.87211538,73.3570736 L1.39326923,73.3570736 L1.39326923,77.6574847 L0.275480769,77.6574847 L0.275480769,72.365454 L4.99759615,72.365454 L4.99759615,77.6574847 L3.87211538,77.6574847" id="Fill-21" fill="#FFFFFF" sketch:type="MSShapeGroup"></path>
                <path d="M8.15817308,77.6574847 L8.15817308,72.365454 L10.6134615,72.365454 C11.7548077,72.365454 12.3764423,73.1428528 12.3764423,74.0714663 C12.3764423,74.9918405 11.7471154,75.7769939 10.6134615,75.7769939 L9.27596154,75.7769939 L9.27596154,77.6574847 L8.15817308,77.6574847 L8.15817308,77.6574847 Z M11.2355769,74.0714663 C11.2355769,73.626546 10.9048077,73.3570736 10.4639423,73.3570736 L9.27596154,73.3570736 L9.27596154,74.7853742 L10.4639423,74.7853742 C10.9048077,74.7853742 11.2355769,74.5071779 11.2355769,74.0714663 L11.2355769,74.0714663 Z" id="Fill-22" fill="#FFFFFF" sketch:type="MSShapeGroup"></path>
                <path d="M15.0115385,75.015589 C15.0115385,73.4205644 16.1682692,72.2782147 17.7504808,72.2782147 C19.3403846,72.2782147 20.4971154,73.4205644 20.4971154,75.015589 C20.4971154,76.6096442 19.3403846,77.7524785 17.7504808,77.7524785 C16.1682692,77.7524785 15.0115385,76.6096442 15.0115385,75.015589 L15.0115385,75.015589 Z M19.3480769,75.015589 C19.3480769,74.023 18.7182692,73.2780736 17.7504808,73.2780736 C16.7822115,73.2780736 16.1605769,74.023 16.1605769,75.015589 C16.1605769,75.999454 16.7822115,76.7531043 17.7504808,76.7531043 C18.7182692,76.7531043 19.3480769,75.999454 19.3480769,75.015589 L19.3480769,75.015589 Z" id="Fill-23" fill="#FFFFFF" sketch:type="MSShapeGroup"></path>
                <path d="M27.9485577,77.6574847 L27.9485577,73.9522393 L26.4692308,77.6574847 L25.98125,77.6574847 L24.5014423,73.9522393 L24.5014423,77.6574847 L23.3836538,77.6574847 L23.3836538,72.365454 L24.9495192,72.365454 L26.225,75.562773 L27.5,72.365454 L29.0740385,72.365454 L29.0740385,77.6574847 L27.9485577,77.6574847" id="Fill-24" fill="#FFFFFF" sketch:type="MSShapeGroup"></path>
                <path d="M33.3620192,72.365454 L33.3620192,74.2454601 L34.7,74.2454601 C35.8331731,74.2454601 36.4629808,75.0310982 36.4629808,75.9514724 C36.4629808,76.8800859 35.8413462,77.6574847 34.7,77.6574847 L32.2442308,77.6574847 L32.2442308,72.365454 L33.3620192,72.365454 L33.3620192,72.365454 Z M33.3620192,75.2370798 L33.3620192,76.665865 L34.5504808,76.665865 C34.9913462,76.665865 35.3221154,76.395908 35.3221154,75.9514724 C35.3221154,75.5152761 34.9913462,75.2370798 34.5504808,75.2370798 L33.3620192,75.2370798 L33.3620192,75.2370798 Z M36.9038462,72.365454 L38.0293269,72.365454 L38.0293269,77.657 L36.9038462,77.657 L36.9038462,72.365454 Z" id="Fill-25" fill="#FFFFFF" sketch:type="MSShapeGroup"></path>
                <path d="M47.8975962,72.365454 L47.8975962,77.6574847 L41.2,77.6574847 L41.2,72.365454 L42.3177885,72.365454 L42.3177885,76.665865 L43.9860577,76.665865 L43.9860577,72.365454 L45.1115385,72.365454 L45.1115385,76.665865 L46.7721154,76.665865 L46.7721154,72.365454 L47.8975962,72.365454" id="Fill-26" fill="#FFFFFF" sketch:type="MSShapeGroup"></path>
                <path d="M50.70625,76.7531043 C51.2331731,76.7531043 51.5403846,76.4671534 51.7052885,75.0708405 L52.0120192,72.365454 L55.7427885,72.365454 L55.7427885,77.6574847 L54.6173077,77.6574847 L54.6173077,73.3570736 L53.0197115,73.3570736 L52.8149038,75.1503252 C52.5634615,77.3482699 51.7759615,77.7524785 50.70625,77.7524785 L50.70625,76.7531043" id="Fill-27" fill="#FFFFFF" sketch:type="MSShapeGroup"></path>
                <path d="M58.9052885,77.6574847 L58.9052885,72.365454 L62.6201923,72.365454 L62.6201923,73.3570736 L60.0230769,73.3570736 L60.0230769,74.4756748 L62.5649038,74.4756748 L62.5649038,75.4672945 L60.0230769,75.4672945 L60.0230769,76.665865 L62.6201923,76.665865 L62.6201923,77.6574847 L58.9052885,77.6574847" id="Fill-28" fill="#FFFFFF" sketch:type="MSShapeGroup"></path>
                <path d="M69.2658654,77.6574847 L69.2658654,75.4353067 L66.7870192,75.4353067 L66.7870192,77.6574847 L65.6692308,77.6574847 L65.6692308,72.365454 L66.7870192,72.365454 L66.7870192,74.4441718 L69.2658654,74.4441718 L69.2658654,72.365454 L70.3918269,72.365454 L70.3918269,77.6574847 L69.2658654,77.6574847" id="Fill-29" fill="#FFFFFF" sketch:type="MSShapeGroup"></path>
                <path d="M77.1509615,77.6574847 L77.1509615,75.4353067 L74.6721154,75.4353067 L74.6721154,77.6574847 L73.5543269,77.6574847 L73.5543269,72.365454 L74.6721154,72.365454 L74.6721154,74.4441718 L77.1509615,74.4441718 L77.1509615,72.365454 L78.2769231,72.365454 L78.2769231,77.6574847 L77.1509615,77.6574847" id="Fill-30" fill="#FFFFFF" sketch:type="MSShapeGroup"></path>
                <path d="M82.5567308,72.365454 L82.5567308,74.2454601 L83.8947115,74.2454601 C85.0278846,74.2454601 85.6576923,75.0310982 85.6576923,75.9514724 C85.6576923,76.8800859 85.0360577,77.6574847 83.8947115,77.6574847 L81.4394231,77.6574847 L81.4394231,72.365454 L82.5567308,72.365454 L82.5567308,72.365454 Z M82.5567308,75.2370798 L82.5567308,76.665865 L83.7451923,76.665865 C84.1860577,76.665865 84.5163462,76.395908 84.5163462,75.9514724 C84.5163462,75.5152761 84.1860577,75.2370798 83.7451923,75.2370798 L82.5567308,75.2370798 L82.5567308,75.2370798 Z M86.0985577,72.365454 L87.2240385,72.365454 L87.2240385,77.657 L86.0985577,77.657 L86.0985577,72.365454 Z" id="Fill-31" fill="#FFFFFF" sketch:type="MSShapeGroup"></path>
                <path d="M90.3947115,77.6574847 L90.3947115,72.365454 L91.5120192,72.365454 L91.5120192,75.7847485 L93.94375,72.365454 L95.0927885,72.365454 L95.0927885,77.6574847 L93.975,77.6574847 L93.975,74.1107239 L91.4725962,77.6574847 L90.3947115,77.6574847 L90.3947115,77.6574847 Z M92.7475962,72.1192454 C92.1884615,72.1192454 91.6850962,71.849773 91.3625,71.4213313 L91.8033654,71.0486258 C92.0158654,71.3500859 92.3384615,71.5405583 92.7475962,71.5405583 C93.1408654,71.5405583 93.4639423,71.3578405 93.6841346,71.0486258 L94.125,71.4213313 C93.8100962,71.849773 93.3144231,72.1192454 92.7475962,72.1192454 L92.7475962,72.1192454 Z" id="Fill-32" fill="#FFFFFF" sketch:type="MSShapeGroup"></path>
                <path d="M105.959615,77.6574847 L104.645673,75.7212577 L103.323077,77.6574847 L101.992788,77.6574847 L103.897596,74.9433742 L102.111058,72.365454 L103.441346,72.365454 L104.645673,74.1746994 L105.833173,72.365454 L107.179808,72.365454 L105.393269,74.9356196 L107.297115,77.6574847 L105.959615,77.6574847" id="Fill-33" fill="#FFFFFF" sketch:type="MSShapeGroup"></path>
                <path d="M109.401923,75.015589 C109.401923,73.4205644 110.559135,72.2782147 112.140385,72.2782147 C113.730769,72.2782147 114.887981,73.4205644 114.887981,75.015589 C114.887981,76.6096442 113.730769,77.7524785 112.140385,77.7524785 C110.559135,77.7524785 109.401923,76.6096442 109.401923,75.015589 L109.401923,75.015589 Z M113.737981,75.015589 C113.737981,74.023 113.109135,73.2780736 112.140385,73.2780736 C111.172115,73.2780736 110.550481,74.023 110.550481,75.015589 C110.550481,75.999454 111.172115,76.7531043 112.140385,76.7531043 C113.109135,76.7531043 113.737981,75.999454 113.737981,75.015589 L113.737981,75.015589 Z" id="Fill-34" fill="#FFFFFF" sketch:type="MSShapeGroup"></path>
                <path d="M117.321154,76.7531043 C117.848558,76.7531043 118.155288,76.4671534 118.320192,75.0708405 L118.627404,72.365454 L122.358173,72.365454 L122.358173,77.6574847 L121.232212,77.6574847 L121.232212,73.3570736 L119.635096,73.3570736 L119.429808,75.1503252 C119.178846,77.3482699 118.390865,77.7524785 117.321154,77.7524785 L117.321154,76.7531043" id="Fill-35" fill="#FFFFFF" sketch:type="MSShapeGroup"></path>
                <path d="M125.154327,76.7531043 C125.689904,76.6808896 125.988942,76.4671534 126.153846,75.0708405 L126.460577,72.365454 L130.191346,72.365454 L130.191346,76.665865 L130.663942,76.665865 L130.663942,78.6331104 L129.546154,78.6331104 L129.546154,77.6574847 L126.272115,77.6574847 L126.272115,78.6331104 L125.154327,78.6331104 L125.154327,76.7531043 L125.154327,76.7531043 Z M126.625962,76.665865 L129.065865,76.665865 L129.065865,73.3570736 L127.468269,73.3570736 L127.263942,75.1503252 C127.185577,75.8647178 126.957212,76.3566503 126.625962,76.665865 L126.625962,76.665865 Z" id="Fill-36" fill="#FFFFFF" sketch:type="MSShapeGroup"></path>
                <path d="M133.514904,77.6574847 L133.514904,72.365454 L134.632692,72.365454 L134.632692,75.7847485 L137.064423,72.365454 L138.213462,72.365454 L138.213462,77.6574847 L137.095673,77.6574847 L137.095673,74.1107239 L134.592788,77.6574847 L133.514904,77.6574847" id="Fill-37" fill="#FFFFFF" sketch:type="MSShapeGroup"></path>
                <path d="M144.977404,77.6574847 L144.977404,75.4353067 L142.498558,75.4353067 L142.498558,77.6574847 L141.380288,77.6574847 L141.380288,72.365454 L142.498558,72.365454 L142.498558,74.4441718 L144.977404,74.4441718 L144.977404,72.365454 L146.103365,72.365454 L146.103365,77.6574847 L144.977404,77.6574847" id="Fill-38" fill="#FFFFFF" sketch:type="MSShapeGroup"></path>
                <path d="M149.265385,77.6574847 L149.265385,72.365454 L152.980288,72.365454 L152.980288,73.3570736 L150.383173,73.3570736 L150.383173,77.6574847 L149.265385,77.6574847" id="Fill-39" fill="#FFFFFF" sketch:type="MSShapeGroup"></path>
                <path d="M161.375,77.6574847 L161.375,73.3570736 L159.840865,73.3570736 L159.840865,72.365454 L164.027885,72.365454 L164.027885,73.3570736 L162.500962,73.3570736 L162.500962,77.6574847 L161.375,77.6574847" id="Fill-40" fill="#FFFFFF" sketch:type="MSShapeGroup"></path>
                <path d="M169.937981,77.6574847 L168.348077,75.5390245 L167.938462,76.0309571 L167.938462,77.6574847 L166.821154,77.6574847 L166.821154,72.365454 L167.938462,72.365454 L167.938462,74.7301227 L169.795673,72.365454 L171.173558,72.365454 L169.087019,74.8493497 L171.314904,77.6574847 L169.937981,77.6574847" id="Fill-41" fill="#FFFFFF" sketch:type="MSShapeGroup"></path>
                <path d="M173.325962,75.015589 C173.325962,73.3890613 174.546154,72.2782147 176.119712,72.2782147 C177.276923,72.2782147 177.945673,72.912638 178.315385,73.5717791 L177.355288,74.0472331 C177.134615,73.6192761 176.662981,73.2780736 176.119712,73.2780736 C175.167788,73.2780736 174.474519,74.0157301 174.474519,75.015589 C174.474519,76.0149632 175.167788,76.7531043 176.119712,76.7531043 C176.662981,76.7531043 177.134615,76.4191718 177.355288,75.9829755 L178.315385,76.4511595 C177.9375,77.1103006 177.276923,77.7524785 176.119712,77.7524785 C174.546154,77.7524785 173.325962,76.6416319 173.325962,75.015589" id="Fill-42" fill="#FFFFFF" sketch:type="MSShapeGroup"></path>
                <path d="M186.162019,0.461883436 L186.919231,2.8246135 L189.380769,2.82170552 L187.387019,4.27714724 L188.153846,6.636 L186.162019,5.17183436 L184.172596,6.636 L184.939423,4.27714724 L182.943269,2.82170552 L185.405769,2.8246135 L186.162019,0.461883436" id="Fill-43" fill="#B01C33" sketch:type="MSShapeGroup"></path>
                <path d="M203.802404,5.23387117 C204.054327,6.02096319 204.307692,6.80757055 204.558654,7.59466258 C205.378365,7.59369325 206.201442,7.59369325 207.023077,7.5917546 C206.357692,8.07593252 205.693269,8.56253374 205.025,9.04768098 C205.283173,9.83283436 205.536538,10.6189571 205.792308,11.4084724 C205.13125,10.9194479 204.465865,10.430908 203.802404,9.94382209 C203.139423,10.430908 202.475962,10.9194479 201.814423,11.4084724 C202.069231,10.6189571 202.324038,9.83283436 202.577885,9.04768098 C201.913942,8.56253374 201.249519,8.07593252 200.583654,7.5917546 C201.405288,7.59369325 202.224519,7.59369325 203.045673,7.59466258 C203.296635,6.80757055 203.551442,6.02096319 203.802404,5.23387117" id="Fill-44" fill="#B01C33" sketch:type="MSShapeGroup"></path>
                <path d="M216.719712,18.2523926 C216.970192,19.041908 217.222115,19.8280307 217.475962,20.617546 C218.296154,20.6136687 219.118269,20.6117301 219.937981,20.6117301 C219.273077,21.0968773 218.607692,21.5815399 217.942308,22.0657178 C218.196154,22.8528098 218.453365,23.6374785 218.707692,24.4269939 C218.04375,23.9365153 217.380288,23.4508834 216.719712,22.9637975 C216.055769,23.4508834 215.391346,23.9365153 214.727404,24.4269939 C214.985577,23.6374785 215.238942,22.8528098 215.495192,22.0657178 C214.827404,21.5815399 214.163942,21.0968773 213.500962,20.6117301 C214.320673,20.6117301 215.141346,20.6136687 215.960577,20.617546 C216.212981,19.8280307 216.467788,19.041908 216.719712,18.2523926" id="Fill-45" fill="#B01C33" sketch:type="MSShapeGroup"></path>
                <path d="M221.450962,36.0356319 C221.702404,36.8236933 221.953365,37.609816 222.207692,38.3993313 C223.028846,38.396908 223.850481,38.395454 224.671154,38.395454 C224.004327,38.8801166 223.339904,39.3642945 222.674038,39.851865 C222.931731,40.6370184 223.185577,41.4226564 223.440385,42.2102331 C222.775481,41.7221779 222.113942,41.235092 221.450962,40.7465521 C220.7875,41.235092 220.124519,41.7221779 219.461538,42.2102331 C219.716827,41.4226564 219.970192,40.6370184 220.225962,39.851865 C219.5625,39.3642945 218.897596,38.8801166 218.232212,38.395454 C219.051923,38.395454 219.873558,38.396908 220.694231,38.3993313 C220.945673,37.609816 221.2,36.8236933 221.450962,36.0356319" id="Fill-46" fill="#B01C33" sketch:type="MSShapeGroup"></path>
                <path d="M216.719712,53.8212945 C216.970192,54.6083865 217.222115,55.3954785 217.475962,56.1825706 C218.296154,56.1825706 219.118269,56.1786933 219.937981,56.1786933 C219.273077,56.6628712 218.607692,57.1480184 217.942308,57.6346196 C218.196154,58.4188037 218.453365,59.206865 218.707692,59.9944417 C218.04375,59.5059018 217.380288,59.0178466 216.719712,58.5297914 C216.055769,59.0178466 215.391346,59.5059018 214.727404,59.9944417 C214.985577,59.206865 215.238942,58.4188037 215.495192,57.6346196 C214.827404,57.1480184 214.163942,56.6628712 213.500962,56.1786933 C214.320673,56.1786933 215.141346,56.1825706 215.960577,56.1825706 C216.212981,55.3954785 216.467788,54.6083865 216.719712,53.8212945" id="Fill-47" fill="#B01C33" sketch:type="MSShapeGroup"></path>
                <path d="M203.802404,66.8407853 C204.054327,67.6278773 204.307692,68.4149693 204.558654,69.202546 C205.378365,69.202546 206.201442,69.198184 207.023077,69.198184 C206.357692,69.6843006 205.693269,70.1670245 205.025,70.6536258 C205.283173,71.4392638 205.536538,72.2253865 205.792308,73.0149018 C205.13125,72.5268466 204.465865,72.0378221 203.802404,71.5512209 C203.139423,72.0378221 202.475962,72.5268466 201.814423,73.0149018 C202.069231,72.2253865 202.324038,71.4392638 202.577885,70.6536258 C201.913942,70.1670245 201.249519,69.6843006 200.583654,69.198184 C201.405288,69.198184 202.224519,69.202546 203.045673,69.202546 C203.296635,68.4149693 203.551442,67.6278773 203.802404,66.8407853" id="Fill-48" fill="#B01C33" sketch:type="MSShapeGroup"></path>
                <path d="M186.162019,71.6103497 C186.413462,72.3974417 186.665385,73.1850184 186.919231,73.9721104 C187.739423,73.9721104 188.562019,73.9701718 189.380769,73.9682331 C188.715385,74.452411 188.050481,74.9390123 187.387019,75.4241595 C187.642788,76.2117362 187.896154,76.9954356 188.153846,77.7849509 C187.490865,77.2959264 186.825481,76.8073865 186.162019,76.3217546 C185.5,76.8073865 184.837981,77.2959264 184.175,77.7849509 C184.427404,76.9954356 184.682212,76.2117362 184.939423,75.4241595 C184.274038,74.9390123 183.608654,74.452411 182.943269,73.9682331 C183.762981,73.9701718 184.584135,73.9721104 185.407692,73.9721104 C185.658654,73.1850184 185.910577,72.3974417 186.162019,71.6103497" id="Fill-49" fill="#B01C33" sketch:type="MSShapeGroup"></path>
                <path d="M150.873077,36.0356319 C151.127885,36.8236933 151.378846,37.609816 151.632692,38.3993313 C152.451923,38.396908 153.272596,38.395454 154.096154,38.395454 C153.429327,38.8801166 152.765865,39.3642945 152.099038,39.851865 C152.354327,40.6370184 152.607692,41.4226564 152.864904,42.2102331 C152.202885,41.7221779 151.538942,41.235092 150.873077,40.7465521 C150.2125,41.235092 149.549519,41.7221779 148.884615,42.2102331 C149.139904,41.4226564 149.397115,40.6370184 149.650481,39.851865 C148.985577,39.3642945 148.320192,38.8801166 147.655288,38.395454 C148.474519,38.395454 149.298077,38.396908 150.119712,38.3993313 C150.371154,37.609816 150.622115,36.8236933 150.873077,36.0356319" id="Fill-50" fill="#B01C33" sketch:type="MSShapeGroup"></path>
                <path d="M155.607692,18.2523926 C155.858654,19.041908 156.110096,19.8280307 156.361058,20.617546 C157.182692,20.6136687 158.005769,20.6117301 158.825481,20.6117301 C158.161058,21.0968773 157.495673,21.5815399 156.830288,22.0657178 C157.085096,22.8528098 157.340865,23.6374785 157.597115,24.4269939 C156.934135,23.9365153 156.268269,23.4508834 155.607692,22.9637975 C154.944231,23.4508834 154.28125,23.9365153 153.615865,24.4269939 C153.873558,23.6374785 154.126923,22.8528098 154.382692,22.0657178 C153.717308,21.5815399 153.051923,21.0968773 152.388942,20.6117301 C153.207692,20.6117301 154.029327,20.6136687 154.848558,20.617546 C155.101923,19.8280307 155.354327,19.041908 155.607692,18.2523926" id="Fill-51" fill="#B01C33" sketch:type="MSShapeGroup"></path>
                <path d="M168.520192,5.23387117 L169.278846,7.59708589 L171.738942,7.5917546 L169.744712,9.04768098 L170.511538,11.4084724 L168.520192,9.94382209 L166.530769,11.4084724 L167.296635,9.04768098 L165.300962,7.5917546 L167.765385,7.59708589 L168.520192,5.23387117" id="Fill-52" fill="#B01C33" sketch:type="MSShapeGroup"></path>
                <path d="M195.95625,21.1850859 L170.754808,38.5059571 L186.117788,38.5059571 L191.538462,56.6715951 L195.95625,21.1850859 L195.95625,21.1850859 Z M198.85625,16.4063129 L192.462981,67.7611595 L184.420192,40.804227 L163.3625,40.804227 L198.85625,16.4063129 L198.85625,16.4063129 Z" id="Fill-53" fill="#B01C33" sketch:type="MSShapeGroup"></path>
                <path d="M195.061058,37.6229018 L188.160096,49.3420429 L187.703846,47.8163252 L195.424519,34.7071718 L195.061058,37.6229018 L195.061058,37.6229018 Z M197.404327,18.7971534 L196.2375,19.5987853 L184.424038,39.6546074 L185.269712,39.6546074 L185.440865,40.2274785 L197.226923,20.2147914 L197.404327,18.7971534 L197.404327,18.7971534 Z M194.467308,20.8148037 L190.926442,23.2497485 L181.2625,39.6546074 L183.369712,39.6546074 L194.467308,20.8148037 L194.467308,20.8148037 Z M189.153846,24.4681902 L182.071635,29.3366258 L175.991346,39.6546074 L180.210096,39.6546074 L189.153846,24.4681902 L189.153846,24.4681902 Z M180.299519,30.5531288 L174.940385,39.6546074 L167.058173,39.6546074 L180.299519,30.5531288 L180.299519,30.5531288 Z M186.009615,42.1375337 L186.464904,43.6627669 L196.412019,26.7742147 L196.774519,23.8584847 L186.009615,42.1375337 L186.009615,42.1375337 Z" id="Fill-54" fill="#B01C33" sketch:type="MSShapeGroup"></path>
            </g>
        </g>
    </g>
</svg>