<?xml version="1.0" encoding="UTF-8" standalone="no"?>
<svg width="239px" height="56px" viewBox="0 0 239 56" version="1.1" xmlns="http://www.w3.org/2000/svg" xmlns:xlink="http://www.w3.org/1999/xlink" xmlns:sketch="http://www.bohemiancoding.com/sketch/ns">
    <!-- Generator: Sketch 3.0.4 (8053) - http://www.bohemiancoding.com/sketch -->
    <title>logo</title>
    <desc>Created with Sketch.</desc>
    <defs></defs>
    <g id="Page-1" stroke="none" stroke-width="1" fill="none" fill-rule="evenodd" sketch:type="MSPage">
        <g id="logo" sketch:type="MSLayerGroup">
            <path d="M71.2270934,17.7456901 L70.5159705,15.6634366 L64.8493197,15.6634366 L64.1381967,17.7456901 L59.9368902,17.7456901 L65.3449508,3.28033803 L69.9987902,3.28033803 L75.4284,17.7456901 L71.2270934,17.7456901 L71.2270934,17.7456901 Z M67.6718705,6.96687324 L65.8401902,12.4103099 L69.5035508,12.4103099 L67.6718705,6.96687324 L67.6718705,6.96687324 Z" id="Fill-1" fill="#FFFFFF" sketch:type="MSShapeGroup"></path>
            <path d="M79.3711164,16.5093521 L79.3711164,21.7358873 L76.0529344,21.7358873 L76.0529344,7.27053521 L79.3711164,7.27053521 L79.3711164,8.4851831 C80.1895934,7.48743662 81.2670525,7.01025352 82.4522574,7.01025352 C85.0593164,7.01025352 87.0199,8.96197183 87.0199,12.4970704 C87.0199,16.0542535 85.0593164,18.0059718 82.4522574,18.0059718 C81.2886016,18.0059718 80.2326918,17.5500845 79.3711164,16.5093521 L79.3711164,16.5093521 Z M83.6370705,12.4970704 C83.6370705,10.9357746 82.6458082,9.95971831 81.3532492,9.95971831 C80.6421262,9.95971831 79.7805508,10.3501408 79.3711164,10.9140845 L79.3711164,14.1017465 C79.7805508,14.644 80.6421262,15.0561127 81.3532492,15.0561127 C82.6458082,15.0561127 83.6370705,14.0804507 83.6370705,12.4970704 L83.6370705,12.4970704 Z" id="Fill-2" fill="#FFFFFF" sketch:type="MSShapeGroup"></path>
            <path d="M96.6398459,10.1766197 L91.7054754,10.1766197 L91.7054754,17.7456901 L88.3876852,17.7456901 L88.3876852,7.27053521 L96.6398459,7.27053521 L96.6398459,10.1766197" id="Fill-3" fill="#FFFFFF" sketch:type="MSShapeGroup"></path>
            <path d="M98.5432262,18.851493 C98.7802672,18.9816338 99.1035049,19.0467042 99.3620951,19.0467042 C100.116316,19.0467042 100.590398,18.8952676 100.762792,18.4610704 L100.999833,17.8971268 L96.862782,7.27053521 L100.353357,7.27053521 L102.701826,13.9069296 L105.071844,7.27053521 L108.583969,7.27053521 L103.887031,19.2423099 C103.046613,21.4539155 101.473915,21.9531831 99.4913902,21.996169 C99.1897016,21.996169 98.414323,21.9310986 98.0695361,21.8226479 L98.5432262,18.851493" id="Fill-4" fill="#FFFFFF" sketch:type="MSShapeGroup"></path>
            <path d="M108.100092,12.4970704 C108.100092,9.22225352 110.535149,7.01025352 113.788292,7.01025352 C116.029798,7.01025352 117.430103,8.008 118.054246,8.94028169 L115.900111,10.9574648 C115.491069,10.3501408 114.822652,9.95971831 113.939136,9.95971831 C112.559989,9.95971831 111.504862,10.9140845 111.504862,12.4970704 C111.504862,14.0804507 112.559989,15.0561127 113.939136,15.0561127 C114.822652,15.0561127 115.491069,14.6227042 115.900111,14.0370704 L118.054246,16.0755493 C117.430103,16.9865352 116.029798,18.0059718 113.788292,18.0059718 C110.535149,18.0059718 108.100092,15.7935775 108.100092,12.4970704" id="Fill-5" fill="#FFFFFF" sketch:type="MSShapeGroup"></path>
            <path d="M71.1408967,36.6752676 L71.1408967,25.4626479 L65.1725574,25.4626479 L65.1725574,36.6752676 L61.4664902,36.6752676 L61.4664902,22.2099155 L74.8469639,22.2099155 L74.8469639,36.6752676 L71.1408967,36.6752676" id="Fill-6" fill="#FFFFFF" sketch:type="MSShapeGroup"></path>
            <path d="M83.0254656,36.6752676 L83.0254656,35.6341408 C82.3789902,36.4145915 81.1295295,36.9355493 79.7934803,36.9355493 C78.1992328,36.9355493 76.2171,35.8510423 76.2171,33.4872113 C76.2171,30.9494648 78.1992328,30.1256338 79.7934803,30.1256338 C81.1726279,30.1256338 82.4005393,30.5594366 83.0254656,31.3398873 L83.0254656,30.0822535 C83.0254656,29.1712676 82.2500869,28.5639437 80.9140377,28.5639437 C79.879677,28.5639437 78.8026098,28.9543662 77.9621918,29.6701408 L76.7769869,27.5665915 C78.1130361,26.4170141 79.9012262,25.939831 81.4958656,25.939831 C83.9951787,25.939831 86.3436475,26.872507 86.3436475,30.1256338 L86.3436475,36.6752676 L83.0254656,36.6752676 L83.0254656,36.6752676 Z M83.0254656,33.9856901 L83.0254656,33.0534085 C82.6806787,32.5762254 81.9053,32.3159437 81.1726279,32.3159437 C80.2891115,32.3159437 79.513341,32.7063662 79.513341,33.5305915 C79.513341,34.3548169 80.2891115,34.7448451 81.1726279,34.7448451 C81.9053,34.7448451 82.6806787,34.4845634 83.0254656,33.9856901 L83.0254656,33.9856901 Z" id="Fill-7" fill="#FFFFFF" sketch:type="MSShapeGroup"></path>
            <path d="M88.2497705,36.6752676 L88.2497705,26.2001127 L91.5679525,26.2001127 L91.5679525,31.6869296 L95.2740197,26.2001127 L98.6137508,26.2001127 L98.6137508,36.6752676 L95.2955689,36.6752676 L95.2955689,30.9064789 L91.4171082,36.6752676 L88.2497705,36.6752676 L88.2497705,36.6752676 Z M93.4427311,25.2240563 C91.9127393,25.2240563 90.5335918,24.4865915 89.6504672,23.3157183 L91.0723213,22.1448451 C91.6110508,22.8819155 92.4083705,23.4024789 93.4427311,23.4024789 C94.4336016,23.4024789 95.2524705,22.9469859 95.7912,22.1448451 L97.2130541,23.3157183 C96.3514787,24.4865915 94.9938803,25.2240563 93.4427311,25.2240563 L93.4427311,25.2240563 Z" id="Fill-8" fill="#FFFFFF" sketch:type="MSShapeGroup"></path>
            <path d="M107.58918,36.6752676 L107.58918,29.1061972 L103.861564,29.1061972 L103.861564,36.6752676 L100.543382,36.6752676 L100.543382,26.2001127 L110.90697,26.2001127 L110.90697,36.6752676 L107.58918,36.6752676" id="Fill-9" fill="#FFFFFF" sketch:type="MSShapeGroup"></path>
            <path d="M112.076503,34.2025915 C112.852274,34.2025915 113.369062,33.508507 113.671143,31.231831 L114.360716,26.2001127 L123.258961,26.2001127 L123.258961,36.6752676 L119.940779,36.6752676 L119.940779,29.1061972 L117.225582,29.1061972 L116.902736,31.6652394 C116.472144,35.0918873 115.135703,36.9355493 112.076503,36.9355493 L112.076503,34.2025915" id="Fill-10" fill="#FFFFFF" sketch:type="MSShapeGroup"></path>
            <path d="M131.359885,36.6752676 L131.359885,35.6341408 C130.713018,36.4145915 129.463557,36.9355493 128.127508,36.9355493 C126.533261,36.9355493 124.550736,35.8510423 124.550736,33.4872113 C124.550736,30.9494648 126.533261,30.1256338 128.127508,30.1256338 C129.506264,30.1256338 130.734567,30.5594366 131.359885,31.3398873 L131.359885,30.0822535 C131.359885,29.1712676 130.583723,28.5639437 129.247674,28.5639437 C128.213705,28.5639437 127.136246,28.9543662 126.29622,29.6701408 L125.110623,27.5665915 C126.446672,26.4170141 128.235254,25.939831 129.82911,25.939831 C132.329207,25.939831 134.677675,26.872507 134.677675,30.1256338 L134.677675,36.6752676 L131.359885,36.6752676 L131.359885,36.6752676 Z M131.359885,33.9856901 L131.359885,33.0534085 C131.014707,32.5762254 130.238544,32.3159437 129.506264,32.3159437 C128.623139,32.3159437 127.847369,32.7063662 127.847369,33.5305915 C127.847369,34.3548169 128.623139,34.7448451 129.506264,34.7448451 C130.238544,34.7448451 131.014707,34.4845634 131.359885,33.9856901 L131.359885,33.9856901 Z" id="Fill-11" fill="#FFFFFF" sketch:type="MSShapeGroup"></path>
            <path d="M136.583798,36.6752676 L136.583798,26.2001127 L139.90198,26.2001127 L139.90198,31.6869296 L143.607264,26.2001127 L146.947779,26.2001127 L146.947779,36.6752676 L143.629597,36.6752676 L143.629597,30.9064789 L139.750352,36.6752676 L136.583798,36.6752676 L136.583798,36.6752676 Z M141.775975,25.2240563 C140.246375,25.2240563 138.86762,24.4865915 137.984495,23.3157183 L139.406349,22.1448451 C139.945079,22.8819155 140.742398,23.4024789 141.775975,23.4024789 C142.767238,23.4024789 143.586107,22.9469859 144.124836,22.1448451 L145.547474,23.3157183 C144.684723,24.4865915 143.327516,25.2240563 141.775975,25.2240563 L141.775975,25.2240563 Z" id="Fill-12" fill="#FFFFFF" sketch:type="MSShapeGroup"></path>
            <path d="M148.883679,36.6752676 L148.883679,26.2001127 L152.201861,26.2001127 L152.201861,29.8002817 L155.929085,29.8002817 L155.929085,26.2001127 L159.247267,26.2001127 L159.247267,36.6752676 L155.929085,36.6752676 L155.929085,32.7063662 L152.201861,32.7063662 L152.201861,36.6752676 L148.883679,36.6752676" id="Fill-13" fill="#FFFFFF" sketch:type="MSShapeGroup"></path>
            <path d="M166.101082,29.4532394 C166.101082,24.9858592 169.462362,21.9709296 173.879552,21.9709296 C177.348187,21.9709296 179.201025,23.9447324 180.149189,25.8530704 L176.960302,27.3713803 C176.486611,26.2218028 175.258308,25.267831 173.879552,25.267831 C171.531084,25.267831 169.872189,27.0894085 169.872189,29.4532394 C169.872189,31.8170704 171.531084,33.6386479 173.879552,33.6386479 C175.258308,33.6386479 176.486611,32.6846761 176.960302,31.5350986 L180.149189,33.0534085 C179.222574,34.9187606 177.348187,36.9355493 173.879552,36.9355493 C169.462362,36.9355493 166.101082,33.8989296 166.101082,29.4532394" id="Fill-14" fill="#FFFFFF" sketch:type="MSShapeGroup"></path>
            <path d="M180.623662,31.4266479 C180.623662,28.3908169 182.907092,25.939831 186.161018,25.939831 C189.241767,25.939831 191.48249,28.2169014 191.48249,31.7736901 L191.48249,32.4894648 L184.071139,32.4894648 C184.26469,33.4655211 185.168972,34.3548169 186.677415,34.3548169 C187.410479,34.3548169 188.681489,34.0294648 189.263316,33.4655211 L190.663621,35.5473803 C189.629652,36.479662 187.905718,36.9355493 186.31147,36.9355493 C183.100643,36.9355493 180.623662,34.8316056 180.623662,31.4266479 L180.623662,31.4266479 Z M186.161018,28.5209577 C184.716831,28.5209577 184.156552,29.5612958 184.027257,30.3204507 L188.315152,30.3204507 C188.229348,29.5833803 187.690618,28.5209577 186.161018,28.5209577 L186.161018,28.5209577 Z" id="Fill-15" fill="#FFFFFF" sketch:type="MSShapeGroup"></path>
            <path d="M196.001941,35.4389296 L196.001941,40.6654648 L192.683759,40.6654648 L192.683759,26.2001127 L196.001941,26.2001127 L196.001941,27.4147606 C196.82081,26.4170141 197.898269,25.939831 199.08269,25.939831 C201.689749,25.939831 203.651116,27.8915493 203.651116,31.4266479 C203.651116,34.9834366 201.689749,36.9355493 199.08269,36.9355493 C197.919426,36.9355493 196.863516,36.479662 196.001941,35.4389296 L196.001941,35.4389296 Z M200.267895,31.4266479 C200.267895,29.8653521 199.277025,28.8892958 197.984074,28.8892958 C197.272951,28.8892958 196.411375,29.2797183 196.001941,29.843662 L196.001941,33.0313239 C196.411375,33.5735775 197.272951,33.9856901 197.984074,33.9856901 C199.277025,33.9856901 200.267895,33.0100282 200.267895,31.4266479 L200.267895,31.4266479 Z" id="Fill-16" fill="#FFFFFF" sketch:type="MSShapeGroup"></path>
            <path d="M205.01851,36.6752676 L205.01851,26.2001127 L212.085857,26.2001127 C214.305031,26.2001127 215.360941,27.5665915 215.360941,28.8892958 C215.360941,30.1256338 214.584779,30.9715493 213.572751,31.2748169 C214.757172,31.5138028 215.597198,32.5328451 215.597198,33.8125634 C215.597198,35.352169 214.498582,36.6752676 212.279408,36.6752676 L205.01851,36.6752676 L205.01851,36.6752676 Z M212.020818,29.4315493 C212.020818,29.0411268 211.740679,28.7808451 211.309695,28.7808451 L208.336692,28.7808451 L208.336692,30.0822535 L211.309695,30.0822535 C211.740679,30.0822535 212.020818,29.8002817 212.020818,29.4315493 L212.020818,29.4315493 Z M212.257859,33.3787606 C212.257859,32.9666479 211.935013,32.6412958 211.43899,32.6412958 L208.336692,32.6412958 L208.336692,34.0945352 L211.43899,34.0945352 C211.913464,34.0945352 212.257859,33.8125634 212.257859,33.3787606 L212.257859,33.3787606 Z" id="Fill-17" fill="#FFFFFF" sketch:type="MSShapeGroup"></path>
            <path d="M217.299192,36.6752676 L217.299192,26.2001127 L220.617374,26.2001127 L220.617374,31.6869296 L224.323441,26.2001127 L227.663172,26.2001127 L227.663172,36.6752676 L224.34499,36.6752676 L224.34499,30.9064789 L220.46653,36.6752676 L217.299192,36.6752676" id="Fill-18" fill="#FFFFFF" sketch:type="MSShapeGroup"></path>
            <path d="M228.946328,31.4266479 C228.946328,28.151831 231.381385,25.939831 234.634136,25.939831 C236.875643,25.939831 238.275948,26.9375775 238.900482,27.8698592 L236.746348,29.8870423 C236.336913,29.2797183 235.668889,28.8892958 234.78498,28.8892958 C233.406225,28.8892958 232.350707,29.843662 232.350707,31.4266479 C232.350707,33.0100282 233.406225,33.9856901 234.78498,33.9856901 C235.668889,33.9856901 236.336913,33.5522817 236.746348,32.9666479 L238.900482,35.0051268 C238.275948,35.9161127 236.875643,36.9355493 234.634136,36.9355493 C231.381385,36.9355493 228.946328,34.7231549 228.946328,31.4266479" id="Fill-19" fill="#FFFFFF" sketch:type="MSShapeGroup"></path>
            <path d="M51.1628475,3.31030986 L51.1628475,14.0504789 L33.1540016,32.1443944 C31.7807311,33.5428169 29.876959,34.4147606 27.7694492,34.4269859 C23.5540377,34.4530141 20.1155721,31.031493 20.0904967,26.7889014 C20.0787426,24.6676056 20.9211197,22.7415211 22.2951738,21.3427042 L40.1457311,3.31030986 L51.1628475,3.31030986" id="Fill-20" fill="#DB322A" sketch:type="MSShapeGroup"></path>
            <path d="M37.4246574,36.1890141 C37.3980148,36.2162254 37.3678459,36.239493 37.3423787,36.2667042 C34.8787197,39.0623662 31.3015557,40.8452958 27.2965426,40.8697465 C19.8193689,40.9135211 13.7213426,34.8489577 13.6774607,27.3224789 C13.6539525,23.291662 15.3814131,19.6698028 18.1306967,17.1584789 C18.1569475,17.1312676 18.1792803,17.1012958 18.2055311,17.0740845 L34.1045164,0.880619718 C31.8539984,0.287098592 29.4926,-0.0283943662 27.0555836,-0.0141971831 C12.1008443,0.0753239437 0.0489754098,12.3503662 0.137914754,27.4033239 C0.226462295,42.4550986 12.4217311,54.5861972 27.3768623,54.4962817 C42.3319934,54.4075493 54.3834705,42.1321127 54.2953148,27.0795493 C54.280818,24.6269859 53.9395574,22.2540845 53.3224672,19.9967324 L37.4246574,36.1890141" id="Fill-21" fill="#FFFFFF" sketch:type="MSShapeGroup"></path>
            <path id="Stroke-22" stroke="#FFFFFF" sketch:type="MSShapeGroup" d="M60.759677,42.8624789 L238.697136,42.8624789"></path>
            <path d="M64.2024525,54.3294648 L64.2024525,50.0533521 L61.7337,50.0533521 L61.7337,54.3294648 L60.6205869,54.3294648 L60.6205869,49.0674366 L65.3230098,49.0674366 L65.3230098,54.3294648 L64.2024525,54.3294648" id="Fill-23" fill="#FFFFFF" sketch:type="MSShapeGroup"></path>
            <path d="M68.5095459,54.3294648 L68.5095459,49.0674366 L70.955182,49.0674366 C72.0914115,49.0674366 72.7108525,49.8403944 72.7108525,50.7636056 C72.7108525,51.6785352 72.0835754,52.4597746 70.955182,52.4597746 L69.622659,52.4597746 L69.622659,54.3294648 L68.5095459,54.3294648 L68.5095459,54.3294648 Z M71.5742311,50.7636056 C71.5742311,50.3219155 71.2451164,50.0533521 70.8062967,50.0533521 L69.622659,50.0533521 L69.622659,51.4738592 L70.8062967,51.4738592 C71.2451164,51.4738592 71.5742311,51.1978028 71.5742311,50.7636056 L71.5742311,50.7636056 Z" id="Fill-24" fill="#FFFFFF" sketch:type="MSShapeGroup"></path>
            <path d="M75.3739393,51.7025915 C75.3739393,50.1164507 76.525841,48.9810704 78.101282,48.9810704 C79.684559,48.9810704 80.8368525,50.1164507 80.8368525,51.7025915 C80.8368525,53.288338 79.684559,54.4241127 78.101282,54.4241127 C76.525841,54.4241127 75.3739393,53.288338 75.3739393,51.7025915 L75.3739393,51.7025915 Z M79.6923951,51.7025915 C79.6923951,50.7162817 79.0655098,49.9748732 78.101282,49.9748732 C77.1374459,49.9748732 76.5180049,50.7162817 76.5180049,51.7025915 C76.5180049,52.6806197 77.1374459,53.4303099 78.101282,53.4303099 C79.0655098,53.4303099 79.6923951,52.6806197 79.6923951,51.7025915 L79.6923951,51.7025915 Z" id="Fill-25" fill="#FFFFFF" sketch:type="MSShapeGroup"></path>
            <path d="M88.2967869,54.3294648 L88.2967869,50.6452958 L86.8232148,54.3294648 L86.3373787,54.3294648 L84.8638066,50.6452958 L84.8638066,54.3294648 L83.7506934,54.3294648 L83.7506934,49.0674366 L85.3104623,49.0674366 L86.5802967,52.2468169 L87.8501311,49.0674366 L89.4173443,49.0674366 L89.4173443,54.3294648 L88.2967869,54.3294648" id="Fill-26" fill="#FFFFFF" sketch:type="MSShapeGroup"></path>
            <path d="M93.7271803,49.0674366 L93.7271803,50.9375211 L95.0597033,50.9375211 C96.1880967,50.9375211 96.8153738,51.7183662 96.8153738,52.6332958 C96.8153738,53.556507 96.1959328,54.3294648 95.0597033,54.3294648 L92.6140672,54.3294648 L92.6140672,49.0674366 L93.7271803,49.0674366 L93.7271803,49.0674366 Z M93.7271803,51.9234366 L93.7271803,53.3431549 L94.910818,53.3431549 C95.3496377,53.3431549 95.6787525,53.0749859 95.6787525,52.6332958 C95.6787525,52.199493 95.3496377,51.9234366 94.910818,51.9234366 L93.7271803,51.9234366 L93.7271803,51.9234366 Z M97.2541934,49.0674366 L98.3751426,49.0674366 L98.3751426,54.3294648 L97.2541934,54.3294648 L97.2541934,49.0674366 Z" id="Fill-27" fill="#FFFFFF" sketch:type="MSShapeGroup"></path>
            <path d="M108.241533,49.0674366 L108.241533,54.3294648 L101.571474,54.3294648 L101.571474,49.0674366 L102.684587,49.0674366 L102.684587,53.3431549 L104.345833,53.3431549 L104.345833,49.0674366 L105.467174,49.0674366 L105.467174,53.3431549 L107.120584,53.3431549 L107.120584,49.0674366 L108.241533,49.0674366" id="Fill-28" fill="#FFFFFF" sketch:type="MSShapeGroup"></path>
            <path d="M111.077405,53.4303099 C111.602421,53.4303099 111.908028,53.1459718 112.072585,51.7578028 L112.378192,49.0674366 L116.093662,49.0674366 L116.093662,54.3294648 L114.972321,54.3294648 L114.972321,50.0533521 L113.3816,50.0533521 L113.17747,51.8366761 C112.927108,54.0218592 112.14311,54.4241127 111.077405,54.4241127 L111.077405,53.4303099" id="Fill-29" fill="#FFFFFF" sketch:type="MSShapeGroup"></path>
            <path d="M119.282157,54.3294648 L119.282157,49.0674366 L122.981956,49.0674366 L122.981956,50.0533521 L120.39527,50.0533521 L120.39527,51.1662535 L122.926711,51.1662535 L122.926711,52.152169 L120.39527,52.152169 L120.39527,53.3431549 L122.981956,53.3431549 L122.981956,54.3294648 L119.282157,54.3294648" id="Fill-30" fill="#FFFFFF" sketch:type="MSShapeGroup"></path>
            <path d="M129.639477,54.3294648 L129.639477,52.1206197 L127.170725,52.1206197 L127.170725,54.3294648 L126.057611,54.3294648 L126.057611,49.0674366 L127.170725,49.0674366 L127.170725,51.1347042 L129.639477,51.1347042 L129.639477,49.0674366 L130.760426,49.0674366 L130.760426,54.3294648 L129.639477,54.3294648" id="Fill-31" fill="#FFFFFF" sketch:type="MSShapeGroup"></path>
            <path d="M137.531179,54.3294648 L137.531179,52.1206197 L135.062426,52.1206197 L135.062426,54.3294648 L133.949313,54.3294648 L133.949313,49.0674366 L135.062426,49.0674366 L135.062426,51.1347042 L137.531179,51.1347042 L137.531179,49.0674366 L138.652128,49.0674366 L138.652128,54.3294648 L137.531179,54.3294648" id="Fill-32" fill="#FFFFFF" sketch:type="MSShapeGroup"></path>
            <path d="M142.954128,49.0674366 L142.954128,50.9375211 L144.286651,50.9375211 C145.415436,50.9375211 146.042321,51.7183662 146.042321,52.6332958 C146.042321,53.556507 145.42288,54.3294648 144.286651,54.3294648 L141.841015,54.3294648 L141.841015,49.0674366 L142.954128,49.0674366 L142.954128,49.0674366 Z M142.954128,51.9234366 L142.954128,53.3431549 L144.137766,53.3431549 C144.576585,53.3431549 144.9057,53.0749859 144.9057,52.6332958 C144.9057,52.199493 144.576585,51.9234366 144.137766,51.9234366 L142.954128,51.9234366 L142.954128,51.9234366 Z M146.481141,49.0674366 L147.601698,49.0674366 L147.601698,54.3294648 L146.481141,54.3294648 L146.481141,49.0674366 Z" id="Fill-33" fill="#FFFFFF" sketch:type="MSShapeGroup"></path>
            <path d="M150.798421,54.3294648 L150.798421,49.0674366 L151.911534,49.0674366 L151.911534,52.467662 L154.332879,49.0674366 L155.477336,49.0674366 L155.477336,54.3294648 L154.364223,54.3294648 L154.364223,50.8030423 L151.871962,54.3294648 L150.798421,54.3294648 L150.798421,54.3294648 Z M153.141797,48.8229296 C152.585044,48.8229296 152.083536,48.5547606 151.762649,48.1288451 L152.201469,47.7581408 C152.413043,48.0578592 152.734321,48.2471549 153.141797,48.2471549 C153.5336,48.2471549 153.85527,48.0653521 154.074289,47.7581408 L154.5135,48.1288451 C154.200057,48.5547606 153.706385,48.8229296 153.141797,48.8229296 L153.141797,48.8229296 Z" id="Fill-34" fill="#FFFFFF" sketch:type="MSShapeGroup"></path>
            <path d="M166.377695,54.3294648 L165.06868,52.4045634 L163.751438,54.3294648 L162.427143,54.3294648 L164.323862,51.6312113 L162.544684,49.0674366 L163.86937,49.0674366 L165.06868,50.8661408 L166.251926,49.0674366 L167.592285,49.0674366 L165.813107,51.6237183 L167.709826,54.3294648 L166.377695,54.3294648" id="Fill-35" fill="#FFFFFF" sketch:type="MSShapeGroup"></path>
            <path d="M169.844762,51.7025915 C169.844762,50.1164507 170.997448,48.9810704 172.572497,48.9810704 C174.155774,48.9810704 175.307675,50.1164507 175.307675,51.7025915 C175.307675,53.288338 174.155774,54.4241127 172.572497,54.4241127 C170.997448,54.4241127 169.844762,53.288338 169.844762,51.7025915 L169.844762,51.7025915 Z M174.16361,51.7025915 C174.16361,50.7162817 173.536725,49.9748732 172.572497,49.9748732 C171.608269,49.9748732 170.98922,50.7162817 170.98922,51.7025915 C170.98922,52.6806197 171.608269,53.4303099 172.572497,53.4303099 C173.536725,53.4303099 174.16361,52.6806197 174.16361,51.7025915 L174.16361,51.7025915 Z" id="Fill-36" fill="#FFFFFF" sketch:type="MSShapeGroup"></path>
            <path d="M177.770551,53.4303099 C178.295175,53.4303099 178.601174,53.1459718 178.765731,51.7578028 L179.071338,49.0674366 L182.786416,49.0674366 L182.786416,54.3294648 L181.665467,54.3294648 L181.665467,50.0533521 L180.074354,50.0533521 L179.870616,51.8366761 C179.619862,54.0218592 178.835864,54.4241127 177.770551,54.4241127 L177.770551,53.4303099" id="Fill-37" fill="#FFFFFF" sketch:type="MSShapeGroup"></path>
            <path d="M185.610926,53.4303099 C186.14417,53.3589296 186.441549,53.1459718 186.606107,51.7578028 L186.912105,49.0674366 L190.627184,49.0674366 L190.627184,53.3431549 L191.097348,53.3431549 L191.097348,55.3 L189.984626,55.3 L189.984626,54.3294648 L186.723648,54.3294648 L186.723648,55.3 L185.610926,55.3 L185.610926,53.4303099 L185.610926,53.4303099 Z M187.076662,53.3431549 L189.506234,53.3431549 L189.506234,50.0533521 L187.915121,50.0533521 L187.711384,51.8366761 C187.633023,52.5469296 187.405777,53.0359437 187.076662,53.3431549 L187.076662,53.3431549 Z" id="Fill-38" fill="#FFFFFF" sketch:type="MSShapeGroup"></path>
            <path d="M193.976318,54.3294648 L193.976318,49.0674366 L195.089431,49.0674366 L195.089431,52.467662 L197.510775,49.0674366 L198.655233,49.0674366 L198.655233,54.3294648 L197.54212,54.3294648 L197.54212,50.8030423 L195.049859,54.3294648 L193.976318,54.3294648" id="Fill-39" fill="#FFFFFF" sketch:type="MSShapeGroup"></path>
            <path d="M205.429903,54.3294648 L205.429903,52.1206197 L202.961543,52.1206197 L202.961543,54.3294648 L201.84843,54.3294648 L201.84843,49.0674366 L202.961543,49.0674366 L202.961543,51.1347042 L205.429903,51.1347042 L205.429903,49.0674366 L206.551244,49.0674366 L206.551244,54.3294648 L205.429903,54.3294648" id="Fill-40" fill="#FFFFFF" sketch:type="MSShapeGroup"></path>
            <path d="M209.740131,54.3294648 L209.740131,49.0674366 L213.43993,49.0674366 L213.43993,50.0533521 L210.853244,50.0533521 L210.853244,54.3294648 L209.740131,54.3294648" id="Fill-41" fill="#FFFFFF" sketch:type="MSShapeGroup"></path>
            <path d="M221.878589,54.3294648 L221.878589,50.0533521 L220.349772,50.0533521 L220.349772,49.0674366 L224.519734,49.0674366 L224.519734,50.0533521 L222.999146,50.0533521 L222.999146,54.3294648 L221.878589,54.3294648" id="Fill-42" fill="#FFFFFF" sketch:type="MSShapeGroup"></path>
            <path d="M230.444584,54.3294648 L228.861307,52.2231549 L228.453831,52.7125634 L228.453831,54.3294648 L227.340718,54.3294648 L227.340718,49.0674366 L228.453831,49.0674366 L228.453831,51.4182535 L230.303534,49.0674366 L231.675238,49.0674366 L229.597897,51.5369577 L231.816287,54.3294648 L230.444584,54.3294648" id="Fill-43" fill="#FFFFFF" sketch:type="MSShapeGroup"></path>
            <path d="M233.857582,51.7025915 C233.857582,50.0849014 235.072956,48.9810704 236.640169,48.9810704 C237.792462,48.9810704 238.458528,49.611662 238.827215,50.2667042 L237.870431,50.740338 C237.651413,50.3136338 237.180857,49.9748732 236.640169,49.9748732 C235.692005,49.9748732 235.002039,50.7087887 235.002039,51.7025915 C235.002039,52.6967887 235.692005,53.4303099 236.640169,53.4303099 C237.180857,53.4303099 237.651413,53.0986479 237.870431,52.6652394 L238.827215,53.1301972 C238.450692,53.7852394 237.792462,54.4241127 236.640169,54.4241127 C235.072956,54.4241127 233.857582,53.3198873 233.857582,51.7025915" id="Fill-44" fill="#FFFFFF" sketch:type="MSShapeGroup"></path>
        </g>
    </g>
</svg>