<?xml version="1.0" encoding="UTF-8" standalone="no"?>
<svg width="46px" height="40px" viewBox="0 0 46 40" version="1.1" xmlns="http://www.w3.org/2000/svg" xmlns:xlink="http://www.w3.org/1999/xlink" xmlns:sketch="http://www.bohemiancoding.com/sketch/ns">
    <!-- Generator: Sketch 3.0.4 (8053) - http://www.bohemiancoding.com/sketch -->
    <title>photos</title>
    <desc>Created with Sketch.</desc>
    <defs></defs>
    <g id="Page-1" stroke="none" stroke-width="1" fill="none" fill-rule="evenodd" sketch:type="MSPage">
        <g id="Landscape-Retina" sketch:type="MSArtboardGroup" transform="translate(-477.000000, -827.000000)" fill="#FFFFFF">
            <g id="photos" sketch:type="MSLayerGroup" transform="translate(477.000000, 828.000000)">
                <path d="M38.309,38.991 L6.941,38.991 C3.245,38.991 0.238,35.984 0.238,32.288 L0.238,12.327 C0.238,8.631 3.245,5.624 6.941,5.624 L11.238,5.624 L12.131,3.243 C12.838,1.378 14.942,-0.079 16.922,-0.079 L28.328,-0.079 C30.308,-0.079 32.412,1.378 33.117,3.24 L34.012,5.624 L38.309,5.624 C42.005,5.624 45.012,8.631 45.012,12.327 L45.012,32.288 C45.012,35.984 42.005,38.991 38.309,38.991 L38.309,38.991 Z M6.941,7.624 C4.348,7.624 2.238,9.734 2.238,12.327 L2.238,32.288 C2.238,34.881 4.348,36.991 6.941,36.991 L38.309,36.991 C40.902,36.991 43.012,34.881 43.012,32.288 L43.012,12.327 C43.012,9.734 40.902,7.624 38.309,7.624 L32.625,7.624 L31.246,3.945 C30.838,2.869 29.474,1.921 28.328,1.921 L16.922,1.921 C15.776,1.921 14.412,2.869 14.002,3.949 L12.625,7.624 L6.941,7.624 L6.941,7.624 Z" id="Fill-1" sketch:type="MSShapeGroup"></path>
                <path d="M22.625,29.224 C18.812,29.224 15.709,26.121 15.709,22.308 C15.709,18.494 18.812,15.392 22.625,15.392 C26.438,15.392 29.541,18.494 29.541,22.308 C29.541,26.121 26.438,29.224 22.625,29.224 L22.625,29.224 Z M22.625,16.392 C19.363,16.392 16.709,19.045 16.709,22.308 C16.709,25.57 19.363,28.224 22.625,28.224 C25.887,28.224 28.541,25.57 28.541,22.308 C28.541,19.045 25.887,16.392 22.625,16.392 L22.625,16.392 Z" id="Fill-2" sketch:type="MSShapeGroup"></path>
            </g>
        </g>
    </g>
</svg>