<?xml version="1.0" encoding="UTF-8" standalone="no"?>
<svg width="14px" height="17px" viewBox="0 0 14 17" version="1.1" xmlns="http://www.w3.org/2000/svg" xmlns:xlink="http://www.w3.org/1999/xlink" xmlns:sketch="http://www.bohemiancoding.com/sketch/ns">
    <!-- Generator: Sketch 3.0.4 (8053) - http://www.bohemiancoding.com/sketch -->
    <title>pinterest</title>
    <desc>Created with Sketch.</desc>
    <defs></defs>
    <g id="Page-1" stroke="none" stroke-width="1" fill="none" fill-rule="evenodd" sketch:type="MSPage">
        <g id="Landscape-Retina" sketch:type="MSArtboardGroup" transform="translate(-1056.000000, -949.000000)" fill="#FFFFFF">
            <g id="pinterest" sketch:type="MSLayerGroup" transform="translate(1057.000000, 949.000000)">
                <path d="M6.468,0.097 C2.101,0.097 -0.101,3.228 -0.101,5.838 C-0.101,7.419 0.497,8.825 1.781,9.349 C1.991,9.435 2.181,9.352 2.241,9.119 C2.284,8.958 2.384,8.551 2.429,8.381 C2.49,8.151 2.467,8.07 2.297,7.869 C1.927,7.433 1.69,6.868 1.69,6.067 C1.69,3.745 3.428,1.666 6.215,1.666 C8.683,1.666 10.039,3.173 10.039,5.187 C10.039,7.837 8.866,10.074 7.125,10.074 C6.163,10.074 5.444,9.278 5.675,8.303 C5.951,7.139 6.485,5.883 6.485,5.043 C6.485,4.29 6.083,3.663 5.247,3.663 C4.264,3.663 3.474,4.679 3.474,6.042 C3.474,6.909 3.768,7.496 3.768,7.496 C3.768,7.496 2.762,11.757 2.585,12.503 C2.233,13.99 2.532,15.812 2.558,15.996 C2.572,16.105 2.713,16.131 2.776,16.048 C2.866,15.93 4.037,14.485 4.435,13.041 C4.548,12.632 5.082,10.515 5.082,10.515 C5.401,11.124 6.335,11.66 7.327,11.66 C10.281,11.66 12.286,8.967 12.286,5.362 C12.286,2.636 9.977,0.097 6.468,0.097" id="Fill-4" sketch:type="MSShapeGroup"></path>
            </g>
        </g>
    </g>
</svg>