<?xml version="1.0" encoding="UTF-8" standalone="no"?>
<svg width="15px" height="15px" viewBox="0 0 15 15" version="1.1" xmlns="http://www.w3.org/2000/svg" xmlns:xlink="http://www.w3.org/1999/xlink" xmlns:sketch="http://www.bohemiancoding.com/sketch/ns">
    <!-- Generator: Sketch 3.0.4 (8053) - http://www.bohemiancoding.com/sketch -->
    <title>seach</title>
    <desc>Created with Sketch.</desc>
    <defs></defs>
    <g id="Page-1" stroke="none" stroke-width="1" fill="none" fill-rule="evenodd" sketch:type="MSPage">
        <g id="Landscape-Retina" sketch:type="MSArtboardGroup" transform="translate(-1053.000000, -750.000000)" fill="#0045D2">
            <g id="seach" sketch:type="MSLayerGroup" transform="translate(1053.000000, 750.000000)">
                <path d="M14.8441558,12.5727273 L11.5402597,9.22597403 C12.0779221,8.28701299 12.3584416,7.24285714 12.3584416,6.19090909 C12.3584416,2.77792208 9.58441558,0 6.17922078,0 C2.77402597,0 0,2.77792208 0,6.19090909 C0,9.6038961 2.77402597,12.3818182 6.17922078,12.3818182 C7.26623377,12.3818182 8.34155844,12.0818182 9.3,11.5090909 L12.5883117,14.8441558 C12.6623377,14.9181818 12.7675325,14.9649351 12.8727273,14.9649351 C12.9779221,14.9649351 13.0831169,14.9220779 13.1571429,14.8441558 L14.8441558,13.1376623 C15,12.9779221 15,12.7285714 14.8441558,12.5727273 L14.8441558,12.5727273 Z M6.17922078,2.41168831 C8.25974026,2.41168831 9.95064935,4.10649351 9.95064935,6.19090909 C9.95064935,8.27532468 8.25974026,9.97012987 6.17922078,9.97012987 C4.0987013,9.97012987 2.40779221,8.27532468 2.40779221,6.19090909 C2.40779221,4.10649351 4.0987013,2.41168831 6.17922078,2.41168831 L6.17922078,2.41168831 Z" id="Imported-Layers" sketch:type="MSShapeGroup"></path>
            </g>
        </g>
    </g>
</svg>