<?xml version="1.0" encoding="UTF-8" standalone="no"?>
<svg width="17px" height="14px" viewBox="0 0 17 14" version="1.1" xmlns="http://www.w3.org/2000/svg" xmlns:xlink="http://www.w3.org/1999/xlink" xmlns:sketch="http://www.bohemiancoding.com/sketch/ns">
    <!-- Generator: Sketch 3.0.4 (8053) - http://www.bohemiancoding.com/sketch -->
    <title>twitter</title>
    <desc>Created with Sketch.</desc>
    <defs></defs>
    <g id="Page-1" stroke="none" stroke-width="1" fill="none" fill-rule="evenodd" sketch:type="MSPage">
        <g id="Landscape-Retina" sketch:type="MSArtboardGroup" transform="translate(-990.000000, -950.000000)" fill="#FFFFFF">
            <g id="twitter" sketch:type="MSLayerGroup" transform="translate(990.000000, 951.000000)">
                <path d="M16.208,1.135 C15.62,1.397 14.987,1.573 14.323,1.652 C15.001,1.246 15.521,0.603 15.767,-0.164 C15.132,0.212 14.429,0.485 13.682,0.632 C13.083,-0.005 12.229,-0.404 11.286,-0.404 C9.473,-0.404 8.003,1.065 8.003,2.878 C8.003,3.136 8.032,3.386 8.088,3.627 C5.36,3.49 2.94,2.183 1.322,0.197 C1.04,0.682 0.878,1.246 0.878,1.847 C0.878,2.986 1.457,3.991 2.338,4.579 C1.8,4.563 1.294,4.415 0.851,4.169 L0.851,4.21 C0.851,5.8 1.983,7.127 3.483,7.429 C3.209,7.504 2.919,7.544 2.619,7.544 C2.407,7.544 2.202,7.523 2.002,7.485 C2.419,8.789 3.632,9.738 5.067,9.765 C3.944,10.645 2.53,11.169 0.991,11.169 C0.727,11.169 0.466,11.154 0.208,11.124 C1.661,12.055 3.386,12.599 5.24,12.599 C11.278,12.599 14.58,7.597 14.58,3.259 C14.58,3.117 14.577,2.975 14.57,2.835 C15.212,2.372 15.769,1.793 16.208,1.135" id="Fill-2" sketch:type="MSShapeGroup"></path>
            </g>
        </g>
    </g>
</svg>