<svg width="44" height="43" viewBox="0 0 44 43" xmlns="http://www.w3.org/2000/svg"><g id="i-5" transform="translate(1)" fill="#63B1FF" fill-rule="evenodd"><path d="M37.894 34.39H18.88c-2.316 0-4.2 1.854-4.2 4.133 0 2.28 1.884 4.134 4.2 4.134h19.014c2.314 0 4.198-1.855 4.198-4.134 0-2.28-1.884-4.133-4.198-4.133zm0 6.26H18.88c-1.224 0-2.22-.954-2.22-2.127 0-1.172.996-2.126 2.22-2.126h19.014c1.222 0 2.218.954 2.218 2.126 0 1.173-.996 2.127-2.218 2.127z" id="Fill-1"/><path d="M19.56 37.233c-.702 0-1.272.578-1.272 1.29 0 .712.57 1.29 1.273 1.29.704 0 1.274-.578 1.274-1.29 0-.712-.57-1.29-1.273-1.29" id="Fill-2"/><path d="M28.388 37.233c-.702 0-1.273.578-1.273 1.29 0 .712.57 1.29 1.273 1.29s1.274-.578 1.274-1.29c0-.712-.57-1.29-1.274-1.29" id="Fill-3"/><path d="M32.802 37.233c-.704 0-1.273.578-1.273 1.29 0 .712.568 1.29 1.272 1.29.702 0 1.273-.578 1.273-1.29 0-.712-.57-1.29-1.273-1.29" id="Fill-4"/><path d="M37.21 37.233c-.702 0-1.272.578-1.272 1.29 0 .712.57 1.29 1.273 1.29.704 0 1.274-.578 1.274-1.29 0-.712-.57-1.29-1.273-1.29" id="Fill-5"/><path d="M23.975 37.233c-.702 0-1.273.578-1.273 1.29 0 .712.57 1.29 1.273 1.29s1.273-.578 1.273-1.29c0-.712-.57-1.29-1.273-1.29" id="Fill-6"/><path d="M18.434 29.395v2.466c0 .555.444 1.004.99 1.004H38.79c.547 0 .99-.45.99-1.003V25.1c0-.02 0-.04-.002-.062-.06-.966-.852-2.403-2.792-2.403h-2.054v-4.7c.03-.324.047-1.29-.673-2.146-.72-.854-1.898-1.287-3.503-1.287h-4.295c-.32-.003-2.298.025-4.207 1.85-2.55 2.435-3.82 6.8-3.82 13.045zm19.366-4.25v5.712H20.414v-.65l11.865-2.59c.455-.1.78-.51.78-.982V24.64h3.926c.493 0 .767.178.814.506zm-5.063-8.073c.26.292.227.65.228.65l-.012 4.91h-.882c-.546 0-.99.45-.99 1.005v2.188l-1.74.38v-9.7l1.417.002c.954 0 1.657.2 1.98.565zm-6.346-.567h.97v10.132l-6.946 1.516c.197-6.11 1.792-8.964 3.144-10.29 1.414-1.387 2.785-1.358 2.833-1.358z" id="Fill-7"/><path d="M14.822 25.035c-.198-.398-.633-.615-1.064-.535-.014.003-1.402.258-3.632.258-.34 0-1.434-.35-2.437-.78-.753-.322-1.51-.655-2.213-.97L14.754 9.27l4.17 9.01c.363-.75.777-1.433 1.24-2.044L15.812 6.83c-.152-.326-.463-.545-.817-.574-.35-.03-.696.136-.897.434L3.64 22.173c-.183-.084-.354-.163-.51-.236L14.606 2.92l8.317 10.84c.695-.394 1.35-.633 1.91-.777L15.292.54c-.198-.26-.505-.405-.836-.385-.325.018-.62.197-.79.478L.866 21.843c-.016.026-.026.055-.04.083-.002.006-.005.013-.008.02-.025.054-.045.11-.06.166-.003.01-.01.02-.01.032-.017.066-.39 1.652-.776 4.067-.374 2.353 1.466 4.518 3.386 5.174.657.224 1.35.338 2.06.338 1.198 0 2.042-.32 2.134-.358.04-.016.078-.034.115-.054l.414-.23c1.416-.784 1.44-.8 2.706-1.732l.158-.117c2.183-1.607 3.61-2.954 3.67-3.01.322-.305.406-.788.208-1.185zM9.78 27.608l-.16.117c-1.173.864-1.173.864-2.49 1.595l-.343.19c-.158.052-.68.205-1.368.205-.497 0-.977-.078-1.43-.232-1.136-.39-2.263-1.697-2.063-2.953.175-1.102.35-2.033.487-2.71l1.128.547c.082.04.168.063.253.08.936.424 2.034.913 3.123 1.38.514.22 2.263.937 3.208.937.27 0 .528-.003.774-.01-.344.272-.72.56-1.12.854z" id="Fill-8"/></g></svg>